<?xml version="1.0" encoding="UTF-8"?>
<svg version="1.1" xmlns="http://www.w3.org/2000/svg" width="1024" height="1024">
<path d="M0 0 C1.00020709 -0.00250352 2.00041418 -0.00500704 3.03093058 -0.00758642 C4.69472212 -0.00407467 4.69472212 -0.00407467 6.39212561 -0.00049198 C7.56725381 -0.00194542 8.74238202 -0.00339886 9.95312017 -0.00489634 C13.23957444 -0.00793465 16.52597219 -0.00644702 19.81242263 -0.00311839 C23.37848133 -0.00059499 26.94453536 -0.00383629 30.51059341 -0.00636172 C36.76871494 -0.0099845 43.02682785 -0.00985707 49.28494978 -0.00731456 C58.59074158 -0.00354408 67.89652607 -0.00545955 77.20231782 -0.00852287 C93.81899405 -0.01379886 110.43566645 -0.01332815 127.05234306 -0.01044396 C141.59353451 -0.00793228 156.13472456 -0.00726988 170.67591619 -0.0084666 C172.12054112 -0.00858118 172.12054112 -0.00858118 173.59435039 -0.00869807 C177.50343366 -0.00900939 181.41251693 -0.00932779 185.32160019 -0.00965784 C222.02117345 -0.01271953 258.72074427 -0.0099391 295.42031715 -0.00456094 C328.05371049 0.00018496 360.68709992 -0.00023965 393.32049322 -0.00502193 C429.95126404 -0.01037201 466.58203269 -0.01250243 503.21280384 -0.00940967 C507.1149265 -0.00908893 511.01704915 -0.00877609 514.91917181 -0.0084666 C515.88003355 -0.00838752 516.84089528 -0.00830845 517.83087404 -0.00822697 C532.36593263 -0.00708762 546.90098966 -0.00842327 561.43604803 -0.01094615 C577.95655787 -0.01379929 594.47706326 -0.0131037 610.99757254 -0.00766541 C620.25312171 -0.00471946 629.50866125 -0.00455131 638.76421018 -0.00831159 C644.93618184 -0.01054338 651.10814574 -0.00917771 657.28011624 -0.00480682 C660.80359471 -0.00241373 664.32705397 -0.0016441 667.85053188 -0.0052128 C671.63468581 -0.0090067 675.4188089 -0.00517235 679.2029624 -0.00049198 C680.31215676 -0.00283314 681.42135112 -0.00517431 682.56415743 -0.00758642 C684.06446806 -0.00383114 684.06446806 -0.00383114 685.59508801 0 C686.89482725 0.00010164 686.89482725 0.00010164 688.22082385 0.00020533 C690.297544 0.12534916 690.297544 0.12534916 692.297544 1.12534916 C692.297544 230.80534916 692.297544 460.48534916 692.297544 697.12534916 C689.95301421 698.29761406 688.57266883 698.25212257 685.96014166 698.2547437 C685.0538854 698.25785557 684.14762915 698.26096745 683.21391058 698.26417363 C681.72777006 698.26119771 681.72777006 698.26119771 680.2116065 698.25816166 C679.18173117 698.25948094 678.15185583 698.26080021 677.09077215 698.26215947 C673.70133309 698.2640919 670.31197488 698.25768591 666.922544 698.25034916 C665.17090445 698.24901982 665.17090445 698.24901982 663.38387823 698.24766362 C649.74059698 698.23551934 636.11968239 698.11251346 622.485044 697.62534916 C605.095087 697.01168328 587.70184478 697.00989141 570.30328512 697.0019666 C568.03284251 697.00038251 565.76241088 696.99684976 563.49197149 696.9927808 C559.81888827 696.98672691 556.14584606 696.9868302 552.47276068 696.99102986 C550.50285603 696.99244265 548.53294963 696.98963414 546.56304693 696.9865247 C540.15469943 697.0020526 533.75966386 697.09353023 527.35591745 697.35107052 C503.56163766 698.29449281 479.77463771 698.28226847 455.96473408 698.28539193 C449.783838 698.28726966 443.60294811 698.29482876 437.42205572 698.30152714 C423.27580729 698.31568654 409.12956308 698.32161591 394.98330927 698.32621909 C387.98295064 698.32856799 380.98259282 698.33217142 373.98223482 698.33591446 C349.98291914 698.34871964 325.98360389 698.35945273 301.98428488 698.36291707 C300.48502441 698.36313869 298.98576394 698.36336047 297.48650347 698.36358242 C295.98391135 698.36380305 294.48131922 698.36402353 292.9787271 698.36424387 C289.96488221 698.36468639 286.95103733 698.36513351 283.93719244 698.36558354 C282.81634946 698.36574763 282.81634946 698.36574763 281.6728632 698.36591503 C257.35907782 698.36955829 233.04532203 698.38554143 208.731548 698.4087739 C182.97093184 698.43334378 157.21033263 698.44708805 131.44970441 698.44828498 C128.62619527 698.44845643 125.80268613 698.44867185 122.979177 698.44891942 C121.93648145 698.44900307 121.93648145 698.44900307 120.87272135 698.44908841 C109.6807429 698.45023964 98.48879497 698.461265 87.29682684 698.47580647 C76.07494992 698.49013636 64.85311176 698.49317418 53.63122466 698.48536649 C47.55074893 698.48144457 41.4703763 698.48246524 35.38991308 698.49642384 C29.83226192 698.50906683 24.2747924 698.5080508 18.71714184 698.49583313 C16.69985711 698.49385967 14.68255992 698.49702959 12.66529277 698.50567749 C9.93746466 698.51663799 7.2102929 698.50937759 4.48248434 698.49728596 C3.68742786 698.50488116 2.89237138 698.51247635 2.07322228 698.5203017 C-3.22405948 698.46910639 -3.22405948 698.46910639 -5.403007 696.90339902 C-7.10551352 694.57384127 -7.07660494 693.17617702 -7.07505149 690.30280536 C-7.08179337 689.30127195 -7.08853525 688.29973853 -7.09548143 687.26785561 C-7.08760038 686.16232092 -7.07971934 685.05678622 -7.07159948 683.91775048 C-7.07506102 682.74255761 -7.07852255 681.56736474 -7.08208898 680.35655996 C-7.0886928 677.07449764 -7.08174284 673.79277612 -7.06925458 670.51074083 C-7.05898157 666.94783935 -7.06605869 663.38496693 -7.07098705 659.82205993 C-7.07721952 653.57107376 -7.07225786 647.32017308 -7.06007242 641.06919682 C-7.04200321 631.77417059 -7.04106166 622.47919851 -7.04369839 613.18415792 C-7.04764476 597.55015178 -7.03759817 581.91618362 -7.01964617 566.28218853 C-7.00191042 550.79692535 -6.99035143 535.31167796 -6.98708773 519.82640469 C-6.98688151 518.86448624 -6.98667529 517.9025678 -6.98646282 516.91150031 C-6.98544786 512.02663603 -6.98454369 507.14177173 -6.98368219 502.25690743 C-6.97737672 467.63467476 -6.95715285 433.01246276 -6.92877436 398.39024174 C-6.90123248 364.74994338 -6.87997605 331.10965068 -6.86725092 297.4693433 C-6.86685634 296.43286308 -6.86646176 295.39638286 -6.86605523 294.32849414 C-6.86209975 283.91997349 -6.8582723 273.5114528 -6.85453865 263.10293208 C-6.84692949 241.89854602 -6.83846574 220.69416034 -6.82948542 199.48977482 C-6.82907355 198.51477738 -6.82866168 197.53977994 -6.82823733 196.53523712 C-6.80062356 131.3985992 -6.75308659 66.26197275 -6.702456 1.12534916 C-4.26769766 -0.09203 -2.72191336 0.00021285 0 0 Z " fill="#D7CFDB" transform="translate(168.70245599746704,162.8746508359909)"/>
<path d="M0 0 C1.00020709 -0.00250352 2.00041418 -0.00500704 3.03093058 -0.00758642 C4.69472212 -0.00407467 4.69472212 -0.00407467 6.39212561 -0.00049198 C7.56725381 -0.00194542 8.74238202 -0.00339886 9.95312017 -0.00489634 C13.23957444 -0.00793465 16.52597219 -0.00644702 19.81242263 -0.00311839 C23.37848133 -0.00059499 26.94453536 -0.00383629 30.51059341 -0.00636172 C36.76871494 -0.0099845 43.02682785 -0.00985707 49.28494978 -0.00731456 C58.59074158 -0.00354408 67.89652607 -0.00545955 77.20231782 -0.00852287 C93.81899405 -0.01379886 110.43566645 -0.01332815 127.05234306 -0.01044396 C141.59353451 -0.00793228 156.13472456 -0.00726988 170.67591619 -0.0084666 C172.12054112 -0.00858118 172.12054112 -0.00858118 173.59435039 -0.00869807 C177.50343366 -0.00900939 181.41251693 -0.00932779 185.32160019 -0.00965784 C222.02117345 -0.01271953 258.72074427 -0.0099391 295.42031715 -0.00456094 C328.05371049 0.00018496 360.68709992 -0.00023965 393.32049322 -0.00502193 C429.95126404 -0.01037201 466.58203269 -0.01250243 503.21280384 -0.00940967 C507.1149265 -0.00908893 511.01704915 -0.00877609 514.91917181 -0.0084666 C515.88003355 -0.00838752 516.84089528 -0.00830845 517.83087404 -0.00822697 C532.36593263 -0.00708762 546.90098966 -0.00842327 561.43604803 -0.01094615 C577.95655787 -0.01379929 594.47706326 -0.0131037 610.99757254 -0.00766541 C620.25312171 -0.00471946 629.50866125 -0.00455131 638.76421018 -0.00831159 C644.93618184 -0.01054338 651.10814574 -0.00917771 657.28011624 -0.00480682 C660.80359471 -0.00241373 664.32705397 -0.0016441 667.85053188 -0.0052128 C671.63468581 -0.0090067 675.4188089 -0.00517235 679.2029624 -0.00049198 C680.31215676 -0.00283314 681.42135112 -0.00517431 682.56415743 -0.00758642 C684.06446806 -0.00383114 684.06446806 -0.00383114 685.59508801 0 C686.89482725 0.00010164 686.89482725 0.00010164 688.22082385 0.00020533 C690.297544 0.12534916 690.297544 0.12534916 692.297544 1.12534916 C692.297544 230.80534916 692.297544 460.48534916 692.297544 697.12534916 C689.95301421 698.29761406 688.57266883 698.25212257 685.96014166 698.2547437 C685.0538854 698.25785557 684.14762915 698.26096745 683.21391058 698.26417363 C681.72777006 698.26119771 681.72777006 698.26119771 680.2116065 698.25816166 C679.18173117 698.25948094 678.15185583 698.26080021 677.09077215 698.26215947 C673.70133309 698.2640919 670.31197488 698.25768591 666.922544 698.25034916 C665.17090445 698.24901982 665.17090445 698.24901982 663.38387823 698.24766362 C649.74059698 698.23551934 636.11968239 698.11251346 622.485044 697.62534916 C605.095087 697.01168328 587.70184478 697.00989141 570.30328512 697.0019666 C568.03284251 697.00038251 565.76241088 696.99684976 563.49197149 696.9927808 C559.81888827 696.98672691 556.14584606 696.9868302 552.47276068 696.99102986 C550.50285603 696.99244265 548.53294963 696.98963414 546.56304693 696.9865247 C540.15469943 697.0020526 533.75966386 697.09353023 527.35591745 697.35107052 C503.56163766 698.29449281 479.77463771 698.28226847 455.96473408 698.28539193 C449.783838 698.28726966 443.60294811 698.29482876 437.42205572 698.30152714 C423.27580729 698.31568654 409.12956308 698.32161591 394.98330927 698.32621909 C387.98295064 698.32856799 380.98259282 698.33217142 373.98223482 698.33591446 C349.98291914 698.34871964 325.98360389 698.35945273 301.98428488 698.36291707 C300.48502441 698.36313869 298.98576394 698.36336047 297.48650347 698.36358242 C295.98391135 698.36380305 294.48131922 698.36402353 292.9787271 698.36424387 C289.96488221 698.36468639 286.95103733 698.36513351 283.93719244 698.36558354 C282.81634946 698.36574763 282.81634946 698.36574763 281.6728632 698.36591503 C257.35907782 698.36955829 233.04532203 698.38554143 208.731548 698.4087739 C182.97093184 698.43334378 157.21033263 698.44708805 131.44970441 698.44828498 C128.62619527 698.44845643 125.80268613 698.44867185 122.979177 698.44891942 C121.93648145 698.44900307 121.93648145 698.44900307 120.87272135 698.44908841 C109.6807429 698.45023964 98.48879497 698.461265 87.29682684 698.47580647 C76.07494992 698.49013636 64.85311176 698.49317418 53.63122466 698.48536649 C47.55074893 698.48144457 41.4703763 698.48246524 35.38991308 698.49642384 C29.83226192 698.50906683 24.2747924 698.5080508 18.71714184 698.49583313 C16.69985711 698.49385967 14.68255992 698.49702959 12.66529277 698.50567749 C9.93746466 698.51663799 7.2102929 698.50937759 4.48248434 698.49728596 C3.68742786 698.50488116 2.89237138 698.51247635 2.07322228 698.5203017 C-3.22405948 698.46910639 -3.22405948 698.46910639 -5.403007 696.90339902 C-7.10551352 694.57384127 -7.07660494 693.17617702 -7.07505149 690.30280536 C-7.08179337 689.30127195 -7.08853525 688.29973853 -7.09548143 687.26785561 C-7.08760038 686.16232092 -7.07971934 685.05678622 -7.07159948 683.91775048 C-7.07506102 682.74255761 -7.07852255 681.56736474 -7.08208898 680.35655996 C-7.0886928 677.07449764 -7.08174284 673.79277612 -7.06925458 670.51074083 C-7.05898157 666.94783935 -7.06605869 663.38496693 -7.07098705 659.82205993 C-7.07721952 653.57107376 -7.07225786 647.32017308 -7.06007242 641.06919682 C-7.04200321 631.77417059 -7.04106166 622.47919851 -7.04369839 613.18415792 C-7.04764476 597.55015178 -7.03759817 581.91618362 -7.01964617 566.28218853 C-7.00191042 550.79692535 -6.99035143 535.31167796 -6.98708773 519.82640469 C-6.98688151 518.86448624 -6.98667529 517.9025678 -6.98646282 516.91150031 C-6.98544786 512.02663603 -6.98454369 507.14177173 -6.98368219 502.25690743 C-6.97737672 467.63467476 -6.95715285 433.01246276 -6.92877436 398.39024174 C-6.90123248 364.74994338 -6.87997605 331.10965068 -6.86725092 297.4693433 C-6.86685634 296.43286308 -6.86646176 295.39638286 -6.86605523 294.32849414 C-6.86209975 283.91997349 -6.8582723 273.5114528 -6.85453865 263.10293208 C-6.84692949 241.89854602 -6.83846574 220.69416034 -6.82948542 199.48977482 C-6.82907355 198.51477738 -6.82866168 197.53977994 -6.82823733 196.53523712 C-6.80062356 131.3985992 -6.75308659 66.26197275 -6.702456 1.12534916 C-4.26769766 -0.09203 -2.72191336 0.00021285 0 0 Z M198.297544 39.12534916 C197.47576666 39.51013432 196.65398932 39.89491948 195.80730963 40.29136479 C153.38478279 60.33789526 110.70173739 91.0654133 81.5553565 128.24644291 C79.83336804 130.44212716 78.08451086 132.58814496 76.2897315 134.72300541 C68.19487218 144.3987973 61.08671135 154.49960845 54.297544 165.12534916 C53.61434088 166.1759351 52.93113775 167.22652104 52.2272315 168.30894291 C4.52452776 243.45567078 -10.61876643 336.6039913 8.54021978 423.31748784 C24.8016783 495.63472733 65.85304393 567.57136362 125.297544 613.12534916 C126.39431859 613.99818911 127.4892634 614.87333154 128.58270025 615.75034916 C144.34541871 628.35919878 160.84054857 638.99408408 178.297544 649.12534916 C179.3825318 649.75618412 179.3825318 649.75618412 180.48943853 650.39976323 C201.80098912 662.64599417 224.90225197 670.9048803 248.297544 678.12534916 C249.59039312 678.53092045 249.59039312 678.53092045 250.90936041 678.9446851 C262.06027322 682.38417521 273.50971579 684.36095639 284.985044 686.37534916 C285.72290136 686.50663212 286.46075872 686.63791508 287.2209754 686.77317631 C296.42588563 688.39519821 305.47963482 689.48727018 314.82024908 689.9056226 C318.297544 690.12534916 318.297544 690.12534916 321.25872564 690.63706791 C324.91803202 691.22504998 328.51562837 691.30560651 332.2116065 691.32847416 C332.97028021 691.3355338 333.72895391 691.34259343 334.51061773 691.34986699 C406.03301674 691.86153324 478.46954545 672.97817623 537.297544 631.12534916 C538.04391119 630.59538334 538.79027838 630.06541752 539.55926275 629.51939213 C549.71436027 622.26545522 559.50974928 614.73039379 568.83074713 606.4290601 C570.13796844 605.26718231 571.45903034 604.12091916 572.781919 602.97691166 C584.03542315 593.12065468 595.04337646 582.50220214 604.2741065 570.70738041 C606.47468647 567.89930444 608.7871704 565.20792581 611.110044 562.50034916 C636.0297505 532.5735919 654.98088537 496.98542245 667.297544 460.12534916 C667.52675543 459.4444019 667.75596685 458.76345463 667.99212408 458.0618726 C673.30124472 442.23928466 677.53545267 426.59734322 680.297544 410.12534916 C680.43789068 409.30647221 680.57823736 408.48759526 680.72283697 407.64390385 C681.13193143 405.24330482 681.53029963 402.84125564 681.922544 400.43784916 C682.03364508 399.76358891 682.14474615 399.08932866 682.25921392 398.39463627 C682.63757493 395.97521374 682.97091448 393.55233848 683.297544 391.12534916 C683.46890875 389.90847416 683.64027349 388.69159916 683.81683111 387.43784916 C685.42036643 375.25439386 685.63729052 363.14607418 685.61321783 350.86900151 C685.61006792 347.52572988 685.63357863 344.18335543 685.65887213 340.84019291 C685.72307097 318.90847739 682.96026831 297.53874472 678.297544 276.12534916 C678.02547125 274.87358891 677.75339849 273.62182866 677.47308111 272.33213627 C675.13822474 261.87128544 672.15008537 251.71868667 668.735044 241.56284916 C668.47465338 240.7839835 668.21426275 240.00511784 667.9459815 239.20265019 C663.30060929 225.37981383 657.8657073 212.1567676 651.297544 199.12534916 C650.8128565 198.14791752 650.328169 197.17048588 649.828794 196.1634351 C643.41878031 183.28080993 636.47453219 170.96767382 628.297544 159.12534916 C627.87763189 158.51401127 627.45771978 157.90267338 627.02508307 157.2728101 C618.90765658 145.51806683 610.26150847 134.10208234 600.563169 123.60191166 C598.67634736 121.53942042 596.84313583 119.44746759 595.016294 117.33238041 C591.3449705 113.12733163 587.49639727 109.13189438 583.547544 105.18784916 C582.49603155 104.13754521 582.49603155 104.13754521 581.42327642 103.06602299 C576.80212747 98.49891017 572.09473947 94.26220906 566.98113775 90.25034916 C564.51687585 88.29902679 562.14202044 86.26910273 559.7741065 84.20274174 C530.03775173 58.39648142 492.60120925 38.30613782 455.297544 26.12534916 C454.62602301 25.89831303 453.95450201 25.6712769 453.26263189 25.43736088 C437.10984122 19.98216691 420.75114777 15.89465021 404.01873541 12.65269291 C401.61303483 12.1864886 399.21115915 11.704397 396.80926275 11.21909916 C330.99965271 -1.69024865 258.5097386 10.71779701 198.297544 39.12534916 Z " fill="#BD9E5F" transform="translate(168.70245599746704,162.8746508359909)"/>
<path d="M0 0 C94.38 0 188.76 0 286 0 C286 94.71 286 189.42 286 287 C283.97523104 282.95046209 283.36533484 279.51881564 282.75 275.125 C273.2775541 214.72588737 241.07917997 156.26743358 200.25 111.46875 C197.978743 108.97667635 195.74008135 106.45759152 193.5 103.9375 C186.76870741 96.46869187 179.69511974 89.47186596 172 83 C171.27167969 82.38253906 170.54335938 81.76507813 169.79296875 81.12890625 C166.89290681 78.71294914 163.9546522 76.34850938 161 74 C160.28714844 73.43104004 159.57429687 72.86208008 158.83984375 72.27587891 C130.14342456 49.50666491 98.67743615 31.8178821 64.42285156 18.93383789 C62.35403441 18.13645522 60.32971994 17.28771558 58.3046875 16.38671875 C54.59050169 14.8281656 50.8688158 13.66454264 47 12.5625 C46.25508301 12.34787109 45.51016602 12.13324219 44.74267578 11.91210938 C42.49679462 11.26865607 40.24872407 10.63343626 38 10 C36.80117188 9.65839844 35.60234375 9.31679687 34.3671875 8.96484375 C23.02133592 5.83013979 11.51328637 3.43079942 0 1 C0 0.67 0 0.34 0 0 Z " fill="#EECACF" transform="translate(570,169)"/>
<path d="M0 0 C0.33 0 0.66 0 1 0 C1 95.04 1 190.08 1 288 C-93.38 288 -187.76 288 -285 288 C-280.83286875 285.91643437 -276.95460411 285.06315827 -272.4375 284.1875 C-207.13949192 270.87946509 -147.9122443 239.23405711 -100 193 C-99.38350586 192.40541992 -98.76701172 191.81083984 -98.13183594 191.19824219 C-91.12634534 184.40302144 -84.31324665 177.57881417 -78.27734375 169.890625 C-76.595272 167.75557681 -74.89030838 165.67673216 -73.12890625 163.609375 C-59.47826836 147.46133196 -47.91482694 129.67575389 -38.05859375 110.98486328 C-37.05680444 109.10650832 -36.02113326 107.25271607 -34.96875 105.40234375 C-16.89869635 73.3060407 -5.44766945 36.27350632 0 0 Z " fill="#B6CCE4" transform="translate(855,567)"/>
<path d="M0 0 C95.04 0 190.08 0 288 0 C288 0.33 288 0.66 288 1 C286.74832031 1.1959375 285.49664062 1.391875 284.20703125 1.59375 C226.22931792 11.13936835 168.62120729 36.41043846 124 75 C122.17048275 76.48388402 120.33715311 77.96308025 118.5 79.4375 C103.37502614 91.81837146 89.03590621 105.58559381 77 121 C76.07276548 122.14002036 75.14291659 123.2779176 74.2109375 124.4140625 C49.04958412 155.19425007 30.02117778 189.83275097 16 227 C15.69126953 227.80630859 15.38253906 228.61261719 15.06445312 229.44335938 C8.23864435 247.51167673 4.24136257 267.004734 1 286 C0.67 286 0.34 286 0 286 C0 191.62 0 97.24 0 0 Z " fill="#EECACE" transform="translate(168,169)"/>
<path d="M0 0 C1.95672978 2.93509467 2.38767219 4.25006631 2.9296875 7.61328125 C3.08268311 8.52360107 3.23567871 9.4339209 3.39331055 10.37182617 C3.55226807 11.34224854 3.71122559 12.3126709 3.875 13.3125 C5.26871441 21.29958034 6.7945782 29.08745083 9.29394531 36.81591797 C9.8299083 38.47384496 10.35618167 40.1349081 10.87792969 41.79736328 C30.52959262 104.25395639 65.87289472 163.97405482 117 206 C117.5151416 206.43425293 118.0302832 206.86850586 118.56103516 207.31591797 C162.16711363 244.06909743 215.00424672 270.61041251 271 282 C271.76618652 282.15936035 272.53237305 282.3187207 273.32177734 282.48291016 C277.54111312 283.3588937 281.76548852 284.19993101 286 285 C286 285.33 286 285.66 286 286 C191.62 286 97.24 286 0 286 C0 191.62 0 97.24 0 0 Z " fill="#B6CCE4" transform="translate(168,569)"/>
<path d="M0 0 C4.74277843 3.34150298 5.76888898 6.75531142 6.73828125 12.20703125 C6.82464844 12.79871094 6.91101563 13.39039063 7 14 C31.78593785 19.52103829 56.50328292 21.06676778 81.8125 21.125 C82.62238373 21.12776947 83.43226746 21.13053894 84.26669312 21.13339233 C86.60101915 21.13922068 88.93520473 21.13738229 91.26953125 21.1328125 C91.97405426 21.13478134 92.67857727 21.13675018 93.40444946 21.13877869 C97.07604603 21.12162743 100.42255533 20.79846934 104 20 C105.5795652 19.84159657 107.16211338 19.7109394 108.74609375 19.60546875 C122.37651194 18.60868031 135.6072036 16.71531685 149 14 C149.12246094 12.741875 149.24492188 11.48375 149.37109375 10.1875 C149.69543684 6.85530153 150.05720033 5.91679952 152.0625 3 C155.36126863 0.75402987 157.15583782 0.26693 161.06640625 0.49609375 C164.31453318 1.34257531 165.95633201 3.46089735 168 6 C168.33 6.33 168.66 6.66 169 7 C169.24900646 8.93505023 169.47356242 10.87325934 169.6875 12.8125 C171.61938338 25.93200653 178.25082556 34.92873703 188.0625 43.328125 C190.52215842 45.45057218 192.80710123 47.60151697 195 50 C195 50.66 195 51.32 195 52 C190.40847549 51.49874187 187.64091687 50.42838063 183.9375 47.6875 C183.12152344 47.09324219 182.30554688 46.49898438 181.46484375 45.88671875 C180.65144531 45.26410156 179.83804687 44.64148438 179 44 C178.16984375 43.40574219 177.3396875 42.81148438 176.484375 42.19921875 C173.42494615 39.49095076 171.46034417 36.57179592 169.3125 33.125 C168.92255859 32.52558594 168.53261719 31.92617188 168.13085938 31.30859375 C164.63186427 25.79393822 162.85510282 20.68640524 162.375 14.125 C162.26285156 12.67480469 162.26285156 12.67480469 162.1484375 11.1953125 C162.09945313 10.47085937 162.05046875 9.74640625 162 9 C159.92446352 8.4465236 158.15634036 8 156 8 C156 11.63 156 15.26 156 19 C146.58047052 21.96628399 137.13751957 23.74458443 127.375 25.1875 C126.25633545 25.35411133 125.1376709 25.52072266 123.98510742 25.69238281 C109.17738792 27.80297311 94.55536071 28.20303644 79.625 28.1875 C78.15568024 28.18709213 78.15568024 28.18709213 76.65667725 28.18667603 C62.34068654 28.16838261 48.2153644 27.81856179 34 26 C33.0502832 25.8875293 32.10056641 25.77505859 31.12207031 25.65917969 C7.08556368 22.8087217 7.08556368 22.8087217 1 20 C-1.02350324 16.96474514 -1.32124018 15.80573798 -1.625 12.3125 C-1.73714844 11.10013672 -1.73714844 11.10013672 -1.8515625 9.86328125 C-1.90054688 9.24839844 -1.94953125 8.63351562 -2 8 C-4.75641416 8.49756092 -4.75641416 8.49756092 -7 10 C-7.05449838 11.72880982 -7.09301688 13.45812712 -7.125 15.1875 C-7.95212753 26.03062497 -13.89099872 36.78450613 -22 44 C-24.88257771 46.23100047 -27.8563723 48.15888937 -31 50 C-31.61359375 50.38027344 -32.2271875 50.76054687 -32.859375 51.15234375 C-45.34803357 58.22391324 -59.78985498 57.28979688 -73.58911133 56.78759766 C-75.90706838 56.70944032 -78.22415848 56.66168678 -80.54296875 56.6171875 C-81.24914841 56.58196991 -81.95532806 56.54675232 -82.6829071 56.51046753 C-84.90353132 56.42030231 -84.90353132 56.42030231 -88 57 C-90.03542546 59.38468579 -90.03542546 59.38468579 -91 62 C-89.783125 62.2475 -88.56625 62.495 -87.3125 62.75 C-80.23094075 64.32118589 -73.15203462 66.33793176 -66.4140625 69.03515625 C-58.0486878 72.37859889 -49.00939623 73.89883847 -40.19726562 75.57763672 C-37.83248487 76.03220013 -35.47098309 76.50189922 -33.109375 76.97265625 C-16.20122613 80.31273481 0.75236999 82.68567036 17.875 84.625 C18.95539551 84.74818604 20.03579102 84.87137207 21.14892578 84.99829102 C34.11451054 86.42153492 47.0355355 87.15581344 60.078125 87.16796875 C62.01446808 87.17296135 62.01446808 87.17296135 63.9899292 87.17805481 C66.70585973 87.18398036 69.42175879 87.18590193 72.13769531 87.18530273 C74.85781598 87.18522211 77.57776592 87.19207357 80.29785156 87.20581055 C130.51418066 87.45529784 181.82713812 82.36704951 229.65991211 66.35986328 C235.06711609 64.55380597 240.41387137 63.14876032 246 62 C245.67 60.02 245.34 58.04 245 56 C244.28199219 56.144375 243.56398438 56.28875 242.82421875 56.4375 C227.99354179 59.09704855 213.57250555 58.99376987 199 55 C199 53.68 199 52.36 199 51 C201.54361233 49.72819384 203.25755372 49.9180109 206.1015625 49.97265625 C207.66233521 49.99295898 207.66233521 49.99295898 209.25463867 50.01367188 C210.92296753 50.0378418 210.92296753 50.0378418 212.625 50.0625 C221.50415144 50.13857984 230.02244114 49.80581633 238.79296875 48.4375 C241.95108649 48.00667273 244.82139062 47.73016122 248 48 C251.64929443 52.35887946 253.76385955 56.68745216 254.33984375 62.328125 C253.91096307 66.96200826 252.66542499 68.16046353 249.3125 71.3125 C248.5714502 72.01125244 248.5714502 72.01125244 247.81542969 72.72412109 C234.79556751 84.76281167 210.45629218 105 192 105 C192 111.93 192 118.86 192 126 C195.96 126 199.92 126 204 126 C204 124.68 204 123.36 204 122 C206.31 122.33 208.62 122.66 211 123 C211.33 124.65 211.66 126.3 212 128 C214.97 128.66 217.94 129.32 221 130 C219.35499703 132.32569385 218.40743664 133.58510303 216 135 C213.3409137 135.13108172 210.90292077 134.77331329 208.265625 134.41015625 C198.15956915 133.14085498 188.552004 133.89066093 178.60913086 135.71728516 C171.43774233 137.00294158 164.24359735 137.85477396 157 138.625 C155.90534424 138.74786377 154.81068848 138.87072754 153.68286133 138.99731445 C130.66349013 141.37275771 107.44738055 141.16370258 84.33276367 141.13037109 C80.36234385 141.12467932 76.39199117 141.12806282 72.42157364 141.133811 C40.75415572 141.17268279 9.38980152 140.41760218 -22 135.875 C-36.01615397 133.88150675 -47.73068271 132.63629218 -61.46484375 136.91015625 C-77.80836176 141.94865517 -94.08810989 141.32205259 -111 141 C-111.66 142.65 -112.32 144.3 -113 146 C-104.68762316 150.21902496 -96.2220569 152.92410509 -87.27246094 155.375 C-85.0546955 155.98495698 -82.84388746 156.61628394 -80.6328125 157.25 C-60.42993263 162.92970267 -39.79124977 166.05733584 -19 168.625 C-18.2149408 168.72337158 -17.42988159 168.82174316 -16.62103271 168.9230957 C-10.4215983 169.69205295 -4.21407982 170.36113694 2 171 C3.22475037 171.12881561 4.44950073 171.25763123 5.71136475 171.39035034 C28.38608722 173.74529927 50.85037938 174.4473938 73.63757324 174.3225708 C76.95742719 174.30912977 80.27714735 174.31442324 83.59701633 174.31942081 C111.77352051 174.35167688 139.90844981 173.67716085 167.8125 169.4375 C170.83906155 168.99322519 173.86665724 168.55632384 176.89453125 168.12109375 C177.59554962 168.01912689 178.29656799 167.91716003 179.01882935 167.81210327 C184.99648289 166.95919319 190.97630578 166.39663083 197 166 C196.8125 168.875 196.8125 168.875 196 172 C192.19941248 174.05719875 188.51613915 174.3931171 184.25 174.6875 C183.10015625 174.77386719 181.9503125 174.86023438 180.765625 174.94921875 C179.85296875 174.96597656 178.9403125 174.98273438 178 175 C177.67 174.67 177.34 174.34 177 174 C170.9083634 173.37861232 165.44726399 173.54587536 159.75 175.875 C136.70234014 185.09406394 105.45002754 182.41021249 81 182.375 C79.12841721 182.37567978 79.12841721 182.37567978 77.21902466 182.37637329 C45.7321896 182.34329288 14.45790005 180.0301194 -16.81640625 176.484375 C-17.86687637 176.36607834 -18.9173465 176.24778168 -19.99964905 176.12590027 C-30.42866265 174.90845855 -40.70384825 173.03383151 -51 171 C-52.73820038 170.66494477 -54.47648115 170.33030629 -56.21484375 169.99609375 C-84.74345007 164.45692725 -84.74345007 164.45692725 -97 160 C-86.96823788 170.66106086 -72.77249206 176.71020739 -59 181 C-58.67 179.68 -58.34 178.36 -58 177 C-56.35 177 -54.7 177 -53 177 C-53 181.95 -53 186.9 -53 192 C11.68 192 76.36 192 143 192 C141 198 141 198 139 200 C136.39304217 200.18317563 133.8942326 200.24026342 131.28733826 200.20927429 C130.48187516 200.20760516 129.67641206 200.20593602 128.84654099 200.2042163 C126.132508 200.19610524 123.41878366 200.17355716 120.70483398 200.15112305 C118.76530314 200.14233883 116.82576819 200.13442472 114.88623047 200.12731934 C109.60744585 200.10536444 104.32881025 200.07080764 99.05011249 200.03379035 C93.53727268 199.99696332 88.02438204 199.97069555 82.51148987 199.94306946 C73.25313467 199.89508401 63.99485208 199.83930867 54.73657227 199.77856445 C44.0165891 199.70828833 33.29658863 199.64848898 22.57651085 199.59470528 C11.18598317 199.53745587 -0.2044922 199.47263522 -11.5949657 199.40554833 C-14.88724021 199.38667096 -18.17951976 199.36921179 -21.47180367 199.3520565 C-26.63537129 199.32477078 -31.79888308 199.29243063 -36.96239471 199.25609589 C-38.86317074 199.243497 -40.76395891 199.23260552 -42.66475487 199.22349739 C-45.24799976 199.21082396 -47.83112822 199.19207832 -50.4143219 199.17167664 C-51.17656163 199.16933429 -51.93880137 199.16699194 -52.72413927 199.16457862 C-57.88582083 199.11417917 -57.88582083 199.11417917 -59 198 C-59.07226502 196.14712498 -59.0838122 194.29166122 -59.0625 192.4375 C-59.05347656 191.42558594 -59.04445313 190.41367187 -59.03515625 189.37109375 C-59.02355469 188.58863281 -59.01195312 187.80617188 -59 187 C-60.16015625 186.89945313 -61.3203125 186.79890625 -62.515625 186.6953125 C-66.98042027 186.13181371 -70.68203929 184.74545439 -74.75 182.875 C-75.44319336 182.56224121 -76.13638672 182.24948242 -76.85058594 181.92724609 C-87.65465099 176.95857164 -98.00429225 170.83136969 -107 163 C-107 162.34 -107 161.68 -107 161 C-107.88171875 160.61134766 -107.88171875 160.61134766 -108.78125 160.21484375 C-111.15450683 158.91540207 -112.6462093 157.52161971 -114.5 155.5625 C-116.86688138 153.1192676 -119.17481095 150.92112855 -122 149 C-120.89061647 142.69403048 -119.06802099 137.62470514 -116 132 C-115.34733154 132.06928711 -114.69466309 132.13857422 -114.0222168 132.20996094 C-97.0854219 133.89360447 -80.60735171 133.7886748 -64 130 C-61.6697731 129.64560167 -59.33704179 129.30625357 -57 129 C-57 127.02 -57 125.04 -57 123 C-53.535 122.505 -53.535 122.505 -50 122 C-49.67 123.32 -49.34 124.64 -49 126 C-44.71 126 -40.42 126 -36 126 C-36 119.07 -36 112.14 -36 105 C-38.97 104.34 -41.94 103.68 -45 103 C-47.79339318 101.90623376 -50.43442007 100.79644894 -53.125 99.5 C-54.21470093 98.97986328 -54.21470093 98.97986328 -55.32641602 98.44921875 C-68.48338049 91.97862734 -82.23781042 83.02182694 -92 72 C-92.33 71.01 -92.66 70.02 -93 69 C-95.47130918 67.84478498 -95.47130918 67.84478498 -98 67 C-99 66 -99 66 -99.25 63.3359375 C-98.95817739 59.44192959 -97.83049635 57.05718066 -96 53.625 C-95.443125 52.56539063 -94.88625 51.50578125 -94.3125 50.4140625 C-93.879375 49.61742187 -93.44625 48.82078125 -93 48 C-88.75153086 47.78757654 -85.29788819 48.4381922 -81.20898438 49.53710938 C-77.08692658 50.40088276 -72.94534768 50.29455843 -68.75 50.25 C-67.82123047 50.24250732 -66.89246094 50.23501465 -65.93554688 50.22729492 C-50.71222746 49.98926433 -36.42464801 47.39599806 -25.16015625 36.40625 C-18.02017096 28.45284867 -14.86246664 21.5862532 -14.44140625 10.9375 C-13.78462767 6.56672573 -12.14802707 3.899805 -8.6875 1.1875 C-5.41583066 -0.25812134 -3.53923935 -0.58987323 0 0 Z " fill="#FBFAFA" transform="translate(434,361)"/>
<path d="M0 0 C0.598125 0.226875 1.19625 0.45375 1.8125 0.6875 C1.87308594 1.31398438 1.93367188 1.94046875 1.99609375 2.5859375 C2.07988281 3.40320313 2.16367187 4.22046875 2.25 5.0625 C2.33121094 5.87460937 2.41242188 6.68671875 2.49609375 7.5234375 C2.70340114 9.73022805 2.70340114 9.73022805 3.8125 11.6875 C6.15581341 12.45717874 8.4148505 13.07384453 10.8125 13.625 C11.55218018 13.79684814 12.29186035 13.96869629 13.05395508 14.14575195 C34.51745779 18.84491363 56.72109001 19.87466727 78.6237793 19.87280273 C81.4778551 19.87498308 84.33153927 19.89319239 87.18554688 19.91210938 C103.63342204 19.96343295 119.59485746 18.40815301 135.8125 15.6875 C137.33423828 15.44 137.33423828 15.44 138.88671875 15.1875 C145.54300801 14.09658447 152.17909323 12.90944335 158.8125 11.6875 C158.8125 8.0575 158.8125 4.4275 158.8125 0.6875 C160.4625 0.3575 162.1125 0.0275 163.8125 -0.3125 C166.61999726 2.49499726 166.19103703 4.63826902 166.5 8.5625 C167.55673424 18.57913293 172.06647524 27.10337895 179.8125 33.6875 C180.34617187 34.17605469 180.87984375 34.66460937 181.4296875 35.16796875 C186.31114575 39.56128118 191.28623218 43.25143671 197.8125 44.6875 C197.34199219 44.21441406 196.87148438 43.74132812 196.38671875 43.25390625 C191.79235847 38.37418198 189.37826225 34.18854488 187.8125 27.6875 C187.585625 26.82125 187.35875 25.955 187.125 25.0625 C186.27739967 18.62073752 186.90438265 14.39188403 189.8125 8.6875 C190.4725 8.0275 191.1325 7.3675 191.8125 6.6875 C194.24485407 7.00754659 196.473515 7.58156719 198.8125 8.3125 C201.35750607 8.78968864 203.32208213 8.31010447 205.8125 7.6875 C211.26560355 13.97954255 212.1524795 17.89366908 212.10546875 26.30859375 C211.62123497 31.89342333 209.79936801 36.70063199 205.8125 40.6875 C206.8025 41.3475 207.7925 42.0075 208.8125 42.6875 C206.5025 43.3475 204.1925 44.0075 201.8125 44.6875 C201.8125 45.3475 201.8125 46.0075 201.8125 46.6875 C217.05770133 50.86563022 232.20478405 50.25667791 247.8125 48.6875 C248.1425 50.6675 248.4725 52.6475 248.8125 54.6875 C195.98648933 73.83732403 140.41634107 80.88113132 84.43457031 80.87280273 C81.70077852 80.87272184 78.96715562 80.87961963 76.23339844 80.89331055 C59.81628411 80.97420765 43.58686624 80.60447147 27.24578857 78.93551636 C25.09729044 78.71652767 22.94845717 78.51395485 20.79736328 78.32250977 C7.53137004 77.12191191 -5.6197041 75.43237603 -18.75 73.1875 C-19.93231201 72.98600342 -21.11462402 72.78450684 -22.33276367 72.5769043 C-28.5653215 71.46898297 -34.63922556 70.12955958 -40.71655273 68.35351562 C-43.35834245 67.64145137 -45.99066728 67.14408123 -48.6875 66.6875 C-56.64320959 65.31621672 -64.29548629 63.0612628 -71.921875 60.44140625 C-75.2281054 59.34122958 -78.57512914 58.38861053 -81.92578125 57.43359375 C-84.14654119 56.70101145 -86.12674234 55.78625637 -88.1875 54.6875 C-87.61405063 51.82025314 -87.3260485 50.8260485 -85.1875 48.6875 C-82.69567785 48.54854027 -80.31588251 48.52864188 -77.828125 48.59765625 C-76.30338923 48.61812438 -74.77864945 48.63829632 -73.25390625 48.65820312 C-70.86490371 48.70118477 -68.47616238 48.74911236 -66.08740234 48.80395508 C-48.31587724 49.18266803 -31.42780982 47.17881981 -17.7421875 34.48046875 C-10.23137793 25.81850495 -5.94176245 16.78578382 -5.59375 5.359375 C-5.1875 2.6875 -5.1875 2.6875 -3.90625 0.765625 C-2.1875 -0.3125 -2.1875 -0.3125 0 0 Z " fill="#E0CAD5" transform="translate(431.1875,368.3125)"/>
<path d="M0 0 C86.22329868 0 86.22329868 0 102.625 16.1875 C103.75742781 17.45171898 104.8835421 18.72165571 106 20 C106.86625 20.763125 107.7325 21.52625 108.625 22.3125 C121.02751637 36.34692642 122.88017526 55.69463157 122.17480469 73.61523438 C120.91836097 90.75621521 112.17398115 105.43683948 99.91796875 116.95703125 C73.58138799 139.38465753 28.77697134 131 0 131 C0 87.77 0 44.54 0 0 Z " fill="#D4D8E2" transform="translate(569,581)"/>
<path d="M0 0 C88.44 0 176.88 0 268 0 C267.67 0.66 267.34 1.32 267 2 C233.65679333 2.02286946 200.31358861 2.0404998 166.97037584 2.05106533 C163.03737946 2.05231609 159.10438308 2.05361041 155.17138672 2.05493164 C154.38837027 2.05519395 153.60535382 2.05545626 152.7986096 2.05572652 C140.1061669 2.06008244 127.41372871 2.06796957 114.7212887 2.0771528 C101.70579649 2.08649149 88.69030666 2.09205607 75.67481124 2.09408849 C67.63814441 2.09546327 59.60149033 2.09981143 51.56482743 2.10791647 C45.41101368 2.11380796 39.25720974 2.11445841 33.10339355 2.11310768 C30.57251787 2.11338403 28.04164172 2.11538935 25.51076889 2.11920547 C22.06950851 2.12414214 18.62830377 2.12299836 15.18704224 2.12025452 C13.66663808 2.12462378 13.66663808 2.12462378 12.11551869 2.12908131 C11.19888695 2.12709026 10.28225521 2.12509921 9.33784676 2.12304783 C8.54271238 2.12342755 7.74757801 2.12380727 6.92834866 2.1241985 C5 2 5 2 3 1 C3.33 94.06 3.66 187.12 4 283 C5.98 274.09 7.96 265.18 10 256 C11.86206787 249.2551764 13.76474286 242.61788951 16 236 C16.45318604 234.65518555 16.45318604 234.65518555 16.91552734 233.28320312 C27.53595885 202.33497737 42.76421446 172.4741076 62 146 C62.39815918 145.45021484 62.79631836 144.90042969 63.20654297 144.33398438 C68.54178902 137.00557093 74.18803896 129.95359625 80 123 C80.84379213 121.96748235 81.6875406 120.93492901 82.53125 119.90234375 C94.58476416 105.3293765 108.02401016 91.5675142 123 80 C124.22083616 78.99498719 125.43799325 77.98549609 126.65234375 76.97265625 C143.32288794 63.09864659 161.27183432 51.9083351 180 41 C181.05670898 40.37931641 181.05670898 40.37931641 182.13476562 39.74609375 C204.47245543 26.74176735 240.61489614 8.04016111 267 9 C266.51171875 11.8515625 266.51171875 11.8515625 265 15 C262.14581836 16.12656784 259.78362078 16.79022316 256.8125 17.375 C255.07497791 17.77594098 253.33935419 18.18517571 251.60546875 18.6015625 C250.68942871 18.82102539 249.77338867 19.04048828 248.82958984 19.26660156 C188.2048052 34.9798762 125.16302325 75.64147793 86.29296875 125.0859375 C84.55648596 127.29277935 82.79445287 129.45304462 80.98828125 131.6015625 C72.89546547 141.27656923 65.78815379 151.3758456 59 162 C58.31679687 163.05058594 57.63359375 164.10117187 56.9296875 165.18359375 C9.22698376 240.33032161 -5.91631044 333.47864214 13.24267578 420.19213867 C29.40650474 492.07520432 69.9931202 563.60358961 129 609 C130.09790549 609.87435768 131.19416758 610.75078159 132.2890625 611.62890625 C148.05189433 624.23475016 164.54442763 634.8695608 182 645 C183.08498779 645.63083496 183.08498779 645.63083496 184.19189453 646.27441406 C205.50344512 658.52064501 228.60470797 666.77953114 252 674 C253.29284912 674.40557129 253.29284912 674.40557129 254.61181641 674.81933594 C265.76272922 678.25882605 277.21217179 680.23560722 288.6875 682.25 C289.42535736 682.38128296 290.16321472 682.51256592 290.9234314 682.64782715 C300.12834163 684.26984905 309.18209082 685.36192102 318.52270508 685.78027344 C322 686 322 686 324.96118164 686.51171875 C328.62048801 687.09970081 332.21808437 687.18025735 335.9140625 687.203125 C336.67273621 687.21018463 337.43140991 687.21724426 338.21307373 687.22451782 C389.01321323 687.58793848 442.26058451 679.4271929 488.23046875 656.59057617 C490 656 490 656 493 657 C493.6875 659.0625 493.6875 659.0625 494 661 C466.87259202 673.47795947 438.5295052 683.0784158 409 688 C502.06 688.33 595.12 688.66 691 689 C691 594.29 691 499.58 691 402 C691.33 402 691.66 402 692 402 C692.33 403.65 692.66 405.3 693 407 C693.33 407 693.66 407 694 407 C694 501.38 694 595.76 694 693 C568.31898674 694.15303682 568.31898674 694.15303682 522.91629611 694.03157397 C516.47120725 694.01567742 510.02610984 694.00590384 503.5810099 693.99568415 C490.58409089 693.97489641 477.58718801 693.94901099 464.59028625 693.91941833 C447.01710704 693.87942441 429.44392669 693.84733742 411.87072754 693.81628418 C369.80963904 693.73823421 327.74857037 693.64977291 285.6875 693.5625 C144.2721875 693.2840625 144.2721875 693.2840625 0 693 C0 464.31 0 235.62 0 0 Z M3 403 C3 497.38 3 591.76 3 689 C97.38 689 191.76 689 289 689 C289 688.67 289 688.34 289 688 C288.27337158 687.86537354 287.54674316 687.73074707 286.7980957 687.59204102 C267.7102294 683.99655506 249.41587669 679.26328177 231 673 C230.06285156 672.68337402 229.12570312 672.36674805 228.16015625 672.04052734 C205.87889343 664.38030864 183.83152404 653.71326652 164 641 C163.27844727 640.53916016 162.55689453 640.07832031 161.81347656 639.60351562 C131.57755644 620.15593798 102.21873213 596.45556922 80 568 C79.07276548 566.85997964 78.14291659 565.7220824 77.2109375 564.5859375 C65.96538043 550.82666767 55.75925146 536.46906268 47 521 C46.5359375 520.18402344 46.071875 519.36804688 45.59375 518.52734375 C25.08048476 482.25518984 11.58971387 443.92842348 4 403 C3.67 403 3.34 403 3 403 Z " fill="#BD9E61" transform="translate(165,166)"/>
<path d="M0 0 C1.155 0.4125 2.31 0.825 3.5 1.25 C9.80651826 3.35548326 16.25734688 4.87768619 22.71533203 6.43774414 C24.35972258 6.84242799 26.00100186 7.25983098 27.64013672 7.68530273 C35.20489926 9.63534455 42.81861238 11.21977995 50.49072266 12.67993164 C52.49845351 13.06220555 54.50513633 13.44963821 56.51171875 13.83789062 C60.33801489 14.57559727 64.16859212 15.28930228 68 16 C68.94907227 16.18344971 69.89814453 16.36689941 70.87597656 16.5559082 C80.12149212 18.24299183 89.47172623 18.9820711 98.82519531 19.80493164 C101.73030465 20.06076556 104.63469825 20.32374582 107.5390625 20.58789062 C124.62043106 22.12779443 141.59395849 23.21377904 158.75 23.1875 C159.61304749 23.18623108 160.47609497 23.18496216 161.36529541 23.18365479 C194.05739094 23.09323986 225.71956332 20.1718277 258 15 C259.23049072 14.80479767 259.23049072 14.80479767 260.48583984 14.60565186 C262.9106221 14.21970139 265.33436438 13.82782707 267.7578125 13.43359375 C268.47486359 13.31911392 269.19191467 13.20463409 269.93069458 13.08668518 C275.86929255 12.10501748 281.58446843 10.61073118 287.37890625 8.9765625 C292.23547856 7.66680729 297.13960044 6.67850972 302.07421875 5.7109375 C304.69735471 5.07353998 306.6202339 4.21223994 309 3 C311.66353755 2.48479018 314.29499131 2.27050087 317 2 C312.2231996 13.99507655 290.85386371 21.78408201 279.546875 26.96875 C277 28 277 28 275 28 C274.67 26.35 274.34 24.7 274 23 C272.35 22.67 270.7 22.34 269 22 C269 33.55 269 45.1 269 57 C261.85721258 58.19046457 254.88131061 59.33552441 247.703125 60.03515625 C246.44891754 60.16053017 246.44891754 60.16053017 245.16937256 60.28843689 C243.41178622 60.4626904 241.65399006 60.63483981 239.89599609 60.80493164 C237.29569722 61.05805171 234.69673294 61.32255279 232.09765625 61.58789062 C207.42456768 64.04561468 182.70930927 64.23907643 157.9375 64.25 C156.78497427 64.25110464 156.78497427 64.25110464 155.60916519 64.2522316 C131.28894832 64.27116553 107.19014006 63.70682437 83 61 C81.70884277 60.86126465 80.41768555 60.7225293 79.08740234 60.57958984 C61.19082185 58.63816437 61.19082185 58.63816437 53 57 C52.67 45.78 52.34 34.56 52 23 C50.68 23 49.36 23 48 23 C47.67 24.32 47.34 25.64 47 27 C29.6471729 24.5210247 12.77364775 12.33237334 0 1 C0 0.67 0 0.34 0 0 Z " fill="#FBFAFB" transform="translate(351,432)"/>
<path d="M0 0 C1.63671875 1.19140625 1.63671875 1.19140625 3 3 C3.29296875 5.48046875 3.29296875 5.48046875 3.1875 8.1875 C3.16042969 9.08855469 3.13335938 9.98960937 3.10546875 10.91796875 C3.07066406 11.60503906 3.03585937 12.29210937 3 13 C3.9178125 12.855625 4.835625 12.71125 5.78125 12.5625 C12.25275333 11.58361714 18.45390849 10.73815634 25 11 C30.2244898 22.59183673 30.2244898 22.59183673 29 28 C26.61782742 30.7378816 24.02813505 32.99948508 21 35 C20.34 35 19.68 35 19 35 C18.814375 36.258125 18.62875 37.51625 18.4375 38.8125 C15.89540469 50.26094343 6.9937764 59.96261775 -2.0703125 66.93359375 C-4 68 -4 68 -8 68 C-8 68.66 -8 69.32 -8 70 C-9.41396902 70.50757862 -10.83131729 71.00574925 -12.25 71.5 C-13.03890625 71.7784375 -13.8278125 72.056875 -14.640625 72.34375 C-17 73 -17 73 -21 73 C-21 73.66 -21 74.32 -21 75 C-25.75037667 76.22031898 -30.37166264 76.12723661 -35.23828125 76.09765625 C-36.11904831 76.0962413 -36.99981537 76.09482635 -37.90727234 76.09336853 C-40.70905003 76.08778937 -43.51074662 76.07524071 -46.3125 76.0625 C-48.21679572 76.05748231 -50.12109269 76.05291987 -52.02539062 76.04882812 C-56.68362481 76.03782677 -61.34179867 76.02057649 -66 76 C-66.13341797 76.62326172 -66.26683594 77.24652344 -66.40429688 77.88867188 C-67.59065851 82.09344869 -71.57990344 84.53248067 -75 87 C-83.0684601 91.40337528 -91.37552843 93.58657639 -100.51171875 91.3984375 C-104.17145886 90.20070437 -107.57725099 88.76509478 -111 87 C-110.59179373 85.6640522 -110.17280893 84.33139832 -109.75 83 C-109.40195312 81.88625 -109.40195312 81.88625 -109.046875 80.75 C-107.63851194 77.05041941 -105.77033234 73.54066469 -104 70 C-168.68 70 -233.36 70 -300 70 C-300 65.05 -300 60.1 -300 55 C-302.475 55.495 -302.475 55.495 -305 56 C-305.33 56.99 -305.66 57.98 -306 59 C-319.6152501 56.23079659 -333.64279255 49.34781858 -344 40 C-344 39.34 -344 38.68 -344 38 C-338.62366139 39.16666548 -333.28826196 40.41983265 -327.96337891 41.80102539 C-319.48656318 43.9912195 -311.04026402 45.84140327 -302.40234375 47.2578125 C-299.35996508 47.75701152 -296.33859392 48.32018105 -293.31640625 48.9296875 C-275.68541368 52.43765832 -257.87981512 54.30792757 -240 56 C-239.19453735 56.07732361 -238.38907471 56.15464722 -237.5592041 56.23431396 C-213.91942446 58.48462206 -190.36989299 59.28457038 -166.625 59.3125 C-165.41061249 59.31608521 -164.19622498 59.31967041 -162.94503784 59.32336426 C-123.04046467 60.32576249 -123.04046467 60.32576249 -84.6640625 51.82421875 C-79.22436206 50.14126158 -73.10052363 50.26106683 -67.57421875 51.578125 C-64.25072769 52.12279425 -61.49873198 51.63109539 -58.1875 51.0625 C-56.44533203 50.77052734 -56.44533203 50.77052734 -54.66796875 50.47265625 C-53.78753906 50.31667969 -52.90710938 50.16070313 -52 50 C-51.72736328 48.82244141 -51.72736328 48.82244141 -51.44921875 47.62109375 C-49.14510201 37.99106736 -49.14510201 37.99106736 -47.25 34 C-45.88623267 30.72695841 -45.78164029 30.17010099 -47 27 C-48.76836723 24.64217702 -50.67197329 22.44578577 -52.6015625 20.21875 C-54 18 -54 18 -53.7109375 15.71875 C-53.35902344 14.86796875 -53.35902344 14.86796875 -53 14 C-50.087425 14.08566397 -48.43201976 14.57910955 -46.33203125 16.625 C-44.83908228 18.38391375 -43.39563738 20.16313019 -42 22 C-38.66298871 20.8876629 -38.32488536 20.37586492 -36.5 17.5625 C-34.74022333 14.86079158 -33.8009287 13.8672858 -31 12 C-30.3090625 11.47664063 -29.618125 10.95328125 -28.90625 10.4140625 C-20.83791842 4.41520558 -10.43253905 -1.098162 0 0 Z " fill="#F7D3D7" transform="translate(681,483)"/>
<path d="M0 0 C1.00020709 -0.00250352 2.00041418 -0.00500704 3.03093058 -0.00758642 C4.69472212 -0.00407467 4.69472212 -0.00407467 6.39212561 -0.00049198 C7.56725381 -0.00194542 8.74238202 -0.00339886 9.95312017 -0.00489634 C13.23957444 -0.00793465 16.52597219 -0.00644702 19.81242263 -0.00311839 C23.37848133 -0.00059499 26.94453536 -0.00383629 30.51059341 -0.00636172 C36.76871494 -0.0099845 43.02682785 -0.00985707 49.28494978 -0.00731456 C58.59074158 -0.00354408 67.89652607 -0.00545955 77.20231782 -0.00852287 C93.81899405 -0.01379886 110.43566645 -0.01332815 127.05234306 -0.01044396 C141.59353451 -0.00793228 156.13472456 -0.00726988 170.67591619 -0.0084666 C172.12054112 -0.00858118 172.12054112 -0.00858118 173.59435039 -0.00869807 C177.50343366 -0.00900939 181.41251693 -0.00932779 185.32160019 -0.00965784 C222.02117345 -0.01271953 258.72074427 -0.0099391 295.42031715 -0.00456094 C328.05371049 0.00018496 360.68709992 -0.00023965 393.32049322 -0.00502193 C429.95126404 -0.01037201 466.58203269 -0.01250243 503.21280384 -0.00940967 C507.1149265 -0.00908893 511.01704915 -0.00877609 514.91917181 -0.0084666 C515.88003355 -0.00838752 516.84089528 -0.00830845 517.83087404 -0.00822697 C532.36593263 -0.00708762 546.90098966 -0.00842327 561.43604803 -0.01094615 C577.95655787 -0.01379929 594.47706326 -0.0131037 610.99757254 -0.00766541 C620.25312171 -0.00471946 629.50866125 -0.00455131 638.76421018 -0.00831159 C644.93618184 -0.01054338 651.10814574 -0.00917771 657.28011624 -0.00480682 C660.80359471 -0.00241373 664.32705397 -0.0016441 667.85053188 -0.0052128 C671.63468581 -0.0090067 675.4188089 -0.00517235 679.2029624 -0.00049198 C680.31215676 -0.00283314 681.42135112 -0.00517431 682.56415743 -0.00758642 C684.06446806 -0.00383114 684.06446806 -0.00383114 685.59508801 0 C686.89482725 0.00010164 686.89482725 0.00010164 688.22082385 0.00020533 C690.297544 0.12534916 690.297544 0.12534916 692.297544 1.12534916 C692.297544 230.80534916 692.297544 460.48534916 692.297544 697.12534916 C689.95301421 698.29761406 688.57266883 698.25212257 685.96014166 698.2547437 C685.05423788 698.25785557 684.1483341 698.26096745 683.21497869 698.26417363 C682.22386587 698.26218968 681.23275305 698.26020573 680.2116065 698.25816166 C678.66203505 698.26014058 678.66203505 698.26014058 677.08115911 698.26215947 C673.69492419 698.26408566 670.30877061 698.25771951 666.922544 698.25034916 C665.77804785 698.24946293 664.63355169 698.2485767 663.45437384 698.24766362 C643.38872077 698.22937527 623.34910682 697.86298615 603.297544 697.12534916 C603.297544 696.79534916 603.297544 696.46534916 603.297544 696.12534916 C632.007544 696.12534916 660.717544 696.12534916 690.297544 696.12534916 C690.297544 467.43534916 690.297544 238.74534916 690.297544 3.12534916 C461.277544 3.12534916 232.257544 3.12534916 -3.702456 3.12534916 C-3.702456 231.81534916 -3.702456 460.50534916 -3.702456 696.12534916 C173.507544 696.12534916 350.717544 696.12534916 533.297544 696.12534916 C533.297544 696.45534916 533.297544 696.78534916 533.297544 697.12534916 C507.52186622 698.24549317 481.76048367 698.28200797 455.96473408 698.28539193 C449.783838 698.28726966 443.60294811 698.29482876 437.42205572 698.30152714 C423.27580729 698.31568654 409.12956308 698.32161591 394.98330927 698.32621909 C387.98295064 698.32856799 380.98259282 698.33217142 373.98223482 698.33591446 C349.98291914 698.34871964 325.98360389 698.35945273 301.98428488 698.36291707 C300.48502441 698.36313869 298.98576394 698.36336047 297.48650347 698.36358242 C295.98391135 698.36380305 294.48131922 698.36402353 292.9787271 698.36424387 C289.96488221 698.36468639 286.95103733 698.36513351 283.93719244 698.36558354 C282.81634946 698.36574763 282.81634946 698.36574763 281.6728632 698.36591503 C257.35907782 698.36955829 233.04532203 698.38554143 208.731548 698.4087739 C182.97093184 698.43334378 157.21033263 698.44708805 131.44970441 698.44828498 C128.62619527 698.44845643 125.80268613 698.44867185 122.979177 698.44891942 C121.93648145 698.44900307 121.93648145 698.44900307 120.87272135 698.44908841 C109.6807429 698.45023964 98.48879497 698.461265 87.29682684 698.47580647 C76.07494992 698.49013636 64.85311176 698.49317418 53.63122466 698.48536649 C47.55074893 698.48144457 41.4703763 698.48246524 35.38991308 698.49642384 C29.83226192 698.50906683 24.2747924 698.5080508 18.71714184 698.49583313 C16.69985711 698.49385967 14.68255992 698.49702959 12.66529277 698.50567749 C9.93746466 698.51663799 7.2102929 698.50937759 4.48248434 698.49728596 C3.68742786 698.50488116 2.89237138 698.51247635 2.07322228 698.5203017 C-3.22405948 698.46910639 -3.22405948 698.46910639 -5.403007 696.90339902 C-7.10551352 694.57384127 -7.07660494 693.17617702 -7.07505149 690.30280536 C-7.08179337 689.30127195 -7.08853525 688.29973853 -7.09548143 687.26785561 C-7.08760038 686.16232092 -7.07971934 685.05678622 -7.07159948 683.91775048 C-7.07506102 682.74255761 -7.07852255 681.56736474 -7.08208898 680.35655996 C-7.0886928 677.07449764 -7.08174284 673.79277612 -7.06925458 670.51074083 C-7.05898157 666.94783935 -7.06605869 663.38496693 -7.07098705 659.82205993 C-7.07721952 653.57107376 -7.07225786 647.32017308 -7.06007242 641.06919682 C-7.04200321 631.77417059 -7.04106166 622.47919851 -7.04369839 613.18415792 C-7.04764476 597.55015178 -7.03759817 581.91618362 -7.01964617 566.28218853 C-7.00191042 550.79692535 -6.99035143 535.31167796 -6.98708773 519.82640469 C-6.98688151 518.86448624 -6.98667529 517.9025678 -6.98646282 516.91150031 C-6.98544786 512.02663603 -6.98454369 507.14177173 -6.98368219 502.25690743 C-6.97737672 467.63467476 -6.95715285 433.01246276 -6.92877436 398.39024174 C-6.90123248 364.74994338 -6.87997605 331.10965068 -6.86725092 297.4693433 C-6.86685634 296.43286308 -6.86646176 295.39638286 -6.86605523 294.32849414 C-6.86209975 283.91997349 -6.8582723 273.5114528 -6.85453865 263.10293208 C-6.84692949 241.89854602 -6.83846574 220.69416034 -6.82948542 199.48977482 C-6.82907355 198.51477738 -6.82866168 197.53977994 -6.82823733 196.53523712 C-6.80062356 131.3985992 -6.75308659 66.26197275 -6.702456 1.12534916 C-4.26769766 -0.09203 -2.72191336 0.00021285 0 0 Z " fill="#F3EFE5" transform="translate(168.70245599746704,162.8746508359909)"/>
<path d="M0 0 C86.22329868 0 86.22329868 0 102.625 16.1875 C103.75742781 17.45171898 104.8835421 18.72165571 106 20 C106.86625 20.763125 107.7325 21.52625 108.625 22.3125 C121.02751637 36.34692642 122.88017526 55.69463157 122.17480469 73.61523438 C120.91836097 90.75621521 112.17398115 105.43683948 99.91796875 116.95703125 C73.58138799 139.38465753 28.77697134 131 0 131 C0 87.77 0 44.54 0 0 Z M19 9 C19 46.29 19 83.58 19 122 C54.68967749 124.51907788 54.68967749 124.51907788 86.25 110.3125 C96.89506866 98.87334356 102.42616063 83.80717075 102.25 68.3125 C102.24178223 67.43182861 102.23356445 66.55115723 102.22509766 65.64379883 C101.95218816 49.61403406 99.09672828 33.86237818 87.4140625 22.08203125 C67.70679127 5.08530703 44.33013677 9 19 9 Z " fill="#FDFDFD" transform="translate(569,581)"/>
<path d="M0 0 C6.6 0 13.2 0 20 0 C20 20.46 20 40.92 20 62 C25.30692032 57.35644472 30.5506433 52.69882147 35.6875 47.875 C36.71907227 46.90820312 36.71907227 46.90820312 37.77148438 45.921875 C42.8239108 41.16335704 47.74726808 36.29132697 52.62548828 31.35522461 C55.93082282 28.02451223 59.33349661 24.90331472 62.91015625 21.87109375 C66.26649148 18.86607585 69.38957017 15.63066772 72.55419922 12.42626953 C76.53699606 8.41292391 80.68419112 4.65365738 85 1 C85.33 0.67 85.66 0.34 86 0 C88.35313555 -0.07271741 90.70833668 -0.08370868 93.0625 -0.0625 C94.99802734 -0.04896484 94.99802734 -0.04896484 96.97265625 -0.03515625 C97.97167969 -0.02355469 98.97070312 -0.01195312 100 0 C95.70647489 5.12803192 91.21160758 9.9356015 86.4765625 14.65625 C85.77155609 15.36221313 85.06654968 16.06817627 84.34017944 16.79553223 C82.85724622 18.27914202 81.37306518 19.76150552 79.88769531 21.24267578 C77.63492295 23.4901006 75.38752763 25.74280229 73.140625 27.99609375 C71.69042458 29.44563313 70.23991388 30.89486217 68.7890625 32.34375 C68.12734039 33.00749634 67.46561829 33.67124268 66.78384399 34.35510254 C62.91718393 38.20273957 58.9460891 41.87006946 54.80537415 45.42167664 C51.93585376 47.93031512 49.24618259 50.608094 46.5625 53.3125 C46.03462891 53.83650391 45.50675781 54.36050781 44.96289062 54.90039062 C42.13023087 57.68443136 42.13023087 57.68443136 40 61 C40.66 61 41.32 61 42 61 C43.28710938 62.31054688 43.28710938 62.31054688 44.84375 64.21875 C48.04161601 67.97938747 51.40547634 71.49446459 54.90625 74.96875 C55.43831055 75.49750732 55.97037109 76.02626465 56.51855469 76.57104492 C58.17708807 78.21601207 59.83809535 79.85843927 61.5 81.5 C74.01392458 93.86073751 74.01392458 93.86073751 79.38085938 100.15820312 C82.413224 103.60756361 85.72273071 106.78551365 89 110 C95.78096255 116.65105906 102.1475402 123.50885145 108 131 C103.95871548 131.1457733 99.91811094 131.23423181 95.875 131.3125 C94.16183594 131.3753418 94.16183594 131.3753418 92.4140625 131.43945312 C82.91032947 131.57758878 82.91032947 131.57758878 79.390625 128.69921875 C78.60171875 127.80847656 77.8128125 126.91773438 77 126 C76.44054687 125.4121875 75.88109375 124.824375 75.3046875 124.21875 C74.83289063 123.6515625 74.36109375 123.084375 73.875 122.5 C66.18729637 113.51415343 58.08865212 104.9254711 49.62841797 96.6652832 C46.83570089 93.91957402 44.19474877 91.10688405 41.640625 88.13671875 C37.1641849 82.957147 32.25407277 78.23831558 27.34570312 73.47265625 C26.65541016 72.79332031 25.96511719 72.11398437 25.25390625 71.4140625 C24.31526733 70.50068115 24.31526733 70.50068115 23.35766602 69.56884766 C22 68 22 68 22 66 C21.34 66 20.68 66 20 66 C20 87.45 20 108.9 20 131 C13.73 131 7.46 131 1 131 C0.67 87.77 0.34 44.54 0 0 Z " fill="#FDFDFD" transform="translate(339,581)"/>
<path d="M0 0 C1.155 0.4125 2.31 0.825 3.5 1.25 C9.80651826 3.35548326 16.25734688 4.87768619 22.71533203 6.43774414 C24.35972258 6.84242799 26.00100186 7.25983098 27.64013672 7.68530273 C35.20489926 9.63534455 42.81861238 11.21977995 50.49072266 12.67993164 C52.49845351 13.06220555 54.50513633 13.44963821 56.51171875 13.83789062 C60.33801489 14.57559727 64.16859212 15.28930228 68 16 C68.94907227 16.18344971 69.89814453 16.36689941 70.87597656 16.5559082 C80.12149212 18.24299183 89.47172623 18.9820711 98.82519531 19.80493164 C101.73030465 20.06076556 104.63469825 20.32374582 107.5390625 20.58789062 C124.62043106 22.12779443 141.59395849 23.21377904 158.75 23.1875 C159.61304749 23.18623108 160.47609497 23.18496216 161.36529541 23.18365479 C194.05739094 23.09323986 225.71956332 20.1718277 258 15 C259.23049072 14.80479767 259.23049072 14.80479767 260.48583984 14.60565186 C262.9106221 14.21970139 265.33436438 13.82782707 267.7578125 13.43359375 C268.47486359 13.31911392 269.19191467 13.20463409 269.93069458 13.08668518 C275.86929255 12.10501748 281.58446843 10.61073118 287.37890625 8.9765625 C292.23547856 7.66680729 297.13960044 6.67850972 302.07421875 5.7109375 C304.69735471 5.07353998 306.6202339 4.21223994 309 3 C311.66353755 2.48479018 314.29499131 2.27050087 317 2 C312.2231996 13.99507655 290.85386371 21.78408201 279.546875 26.96875 C277 28 277 28 275 28 C274.67 26.35 274.34 24.7 274 23 C272.35 22.67 270.7 22.34 269 22 C269 33.55 269 45.1 269 57 C261.85721258 58.19046457 254.88131061 59.33552441 247.703125 60.03515625 C246.44891754 60.16053017 246.44891754 60.16053017 245.16937256 60.28843689 C243.41178622 60.4626904 241.65399006 60.63483981 239.89599609 60.80493164 C237.29569722 61.05805171 234.69673294 61.32255279 232.09765625 61.58789062 C207.42456768 64.04561468 182.70930927 64.23907643 157.9375 64.25 C156.78497427 64.25110464 156.78497427 64.25110464 155.60916519 64.2522316 C131.28894832 64.27116553 107.19014006 63.70682437 83 61 C81.70884277 60.86126465 80.41768555 60.7225293 79.08740234 60.57958984 C61.19082185 58.63816437 61.19082185 58.63816437 53 57 C52.67 45.78 52.34 34.56 52 23 C50.68 23 49.36 23 48 23 C47.67 24.32 47.34 25.64 47 27 C29.6471729 24.5210247 12.77364775 12.33237334 0 1 C0 0.67 0 0.34 0 0 Z M57 27 C56.91251793 28.92667507 56.89302666 30.85651861 56.90234375 32.78515625 C56.90556641 33.95498047 56.90878906 35.12480469 56.91210938 36.33007812 C56.92048828 37.56177734 56.92886719 38.79347656 56.9375 40.0625 C56.94201172 41.29806641 56.94652344 42.53363281 56.95117188 43.80664062 C56.96300392 46.87114117 56.97948827 49.93554721 57 53 C63.46154496 55.74309558 69.89096834 56.06734429 76.82118225 56.33430481 C89.71490697 56.83100541 89.71490697 56.83100541 95.98657227 57.48144531 C114.5496698 59.40190374 133.09763544 59.3548309 151.73757935 59.31745148 C154.46437927 59.31245071 157.19116466 59.31095856 159.91796875 59.30999756 C192.12400115 59.28581336 224.17141185 58.37804858 256.21875 54.9609375 C257.37630798 54.83992172 257.37630798 54.83992172 258.55725098 54.71646118 C262.078326 54.59808418 262.078326 54.59808418 265 53 C265.08758003 51.00035018 265.10696576 48.9976389 265.09765625 46.99609375 C265.09443359 45.78115234 265.09121094 44.56621094 265.08789062 43.31445312 C265.07951172 42.03505859 265.07113281 40.75566406 265.0625 39.4375 C265.05573242 37.51260742 265.05573242 37.51260742 265.04882812 35.54882812 C265.03699545 32.36583978 265.02051068 29.18294238 265 26 C254.83597975 25.87120868 244.85374479 26.35232575 234.73046875 27.20117188 C207.87222656 29.3067832 180.94077065 29.16010153 154.02050781 29.13037109 C148.74440184 29.12459945 143.46834593 29.12801598 138.19224167 29.13394356 C134.08465192 29.13755875 129.97707406 29.13640745 125.86948395 29.13381577 C123.92233524 29.13315302 121.97518543 29.13395187 120.02803802 29.13629532 C117.32172261 29.13884597 114.61548903 29.13495072 111.90917969 29.12939453 C111.12166321 29.13141876 110.33414673 29.13344299 109.52276611 29.13552856 C104.59589651 29.11687123 99.88031512 28.68098793 95 28 C90.17109589 27.58332556 85.33562716 27.26620577 80.5 26.9375 C78.57994141 26.80118164 78.57994141 26.80118164 76.62109375 26.66210938 C66.32104187 25.04697215 66.32104187 25.04697215 57 27 Z " fill="#DCCBD8" transform="translate(351,432)"/>
<path d="M0 0 C5.37633861 1.16666548 10.71173804 2.41983265 16.03662109 3.80102539 C24.51343682 5.9912195 32.95973598 7.84140327 41.59765625 9.2578125 C44.64003492 9.75701152 47.66140608 10.32018105 50.68359375 10.9296875 C68.31458632 14.43765832 86.12018488 16.30792757 104 18 C104.80546265 18.07732361 105.61092529 18.15464722 106.4407959 18.23431396 C130.08057554 20.48462206 153.63010701 21.28457038 177.375 21.3125 C178.58938751 21.31608521 179.80377502 21.31967041 181.05496216 21.32336426 C198.07610089 21.35047924 214.93957302 20.56064875 231.90708923 19.2331543 C236.37272947 18.89651891 240.84143299 18.62775447 245.3125 18.375 C246.62863281 18.30023437 247.94476562 18.22546875 249.30078125 18.1484375 C250.19152344 18.09945312 251.08226562 18.05046875 252 18 C251.21882812 18.77214844 250.43765625 19.54429687 249.6328125 20.33984375 C246.65349919 23.35009948 243.86889213 26.36750955 241.87041759 30.12228012 C239.50323702 32.49870239 237.75370121 32.47850154 234.48282558 32.51632524 C233.35199456 32.49884819 233.35199456 32.49884819 232.19831848 32.48101807 C231.39537894 32.48443577 230.59243941 32.48785347 229.76516837 32.49137473 C227.06549838 32.49798124 224.36681522 32.47593245 221.66723633 32.45410156 C219.73578413 32.45297368 217.80433022 32.45360578 215.87287903 32.45587158 C210.62100868 32.45702197 205.36950176 32.43346006 200.11771607 32.40557575 C194.63242564 32.3806162 189.1471274 32.3782244 183.66178894 32.37347412 C173.27076345 32.36102831 162.87990576 32.32818496 152.48895425 32.28807616 C140.66083834 32.24340839 128.83271453 32.22138398 117.00453532 32.20129442 C92.66959394 32.15945376 68.33481343 32.08826733 44 32 C44 27.05 44 22.1 44 17 C42.35 17.33 40.7 17.66 39 18 C38.505 19.485 38.505 19.485 38 21 C24.3847499 18.23079659 10.35720745 11.34781858 0 2 C0 1.34 0 0.68 0 0 Z " fill="#D0CADA" transform="translate(337,521)"/>
<path d="M0 0 C3.80587172 1.48006122 6.83193068 3.44117478 10 6 C10.36609375 5.566875 10.7321875 5.13375 11.109375 4.6875 C14.81692016 0.87402498 17.63778737 -0.50748787 23 -0.75 C28.26696938 -0.49887724 31.1062259 0.77853412 34.79296875 4.4921875 C38.00825768 8.5086973 37.47932854 13.09051374 37 18 C34.2112533 29.0691792 21.82409924 38.43849423 13.5078125 45.55078125 C11 47 11 47 8.58154297 46.78857422 C5.6990291 45.90806355 4.35348845 44.90140522 2.1875 42.83203125 C1.50429688 42.18556641 0.82109375 41.53910156 0.1171875 40.87304688 C-0.58148438 40.19306641 -1.28015625 39.51308594 -2 38.8125 C-2.69867188 38.15185547 -3.39734375 37.49121094 -4.1171875 36.81054688 C-17.96027994 23.58125193 -17.96027994 23.58125193 -18.5625 13.5625 C-18.44333344 8.42431834 -17.08053416 5.84942821 -13.5078125 2.2421875 C-9.55831828 -1.0115409 -4.87660677 -0.4276409 0 0 Z " fill="#FBFCFB" transform="translate(495,634)"/>
<path d="M0 0 C2.91578604 5.09055999 5.82707516 10.18361028 8.73046875 15.28125 C10.73283614 18.79405166 12.75292982 22.29478851 14.80078125 25.78125 C15.42545288 26.85729492 15.42545288 26.85729492 16.06274414 27.95507812 C16.83597103 29.28687915 17.617332 30.61400128 18.40795898 31.93554688 C20.42323964 35.43416071 21.46115568 37.94183 21 42 C19.68 42.33 18.36 42.66 17 43 C12.44702229 36.46746676 8.55026344 29.71297931 4.8125 22.6875 C3.78031729 20.7523173 2.74526757 18.81866041 1.70703125 16.88671875 C1.2581958 16.04326904 0.80936035 15.19981934 0.34692383 14.33081055 C-0.98261046 12.03009206 -2.20167668 9.96121697 -4 8 C-6.83718574 7.98147648 -9.17086909 8.17168124 -11.9375 8.625 C-12.70602295 8.73328125 -13.4745459 8.8415625 -14.26635742 8.953125 C-18.46172814 9.55666186 -22.63738829 10.27025268 -26.8125 11 C-44.40842708 14.00583925 -61.99982336 14.36404034 -79.8125 14.3125 C-81.01945526 14.31167419 -82.22641052 14.31084839 -83.46994019 14.30999756 C-102.15387673 14.28060692 -120.48191741 13.59264615 -139 11 C-140.23234375 10.83226074 -141.4646875 10.66452148 -142.734375 10.49169922 C-148.94560963 9.6300111 -154.95801561 8.69175563 -161 7 C-161.24492187 7.66 -161.48984375 8.32 -161.7421875 9 C-164.63771811 15.90611027 -168.39793061 22.44231183 -172 29 C-172.3702832 29.67417969 -172.74056641 30.34835937 -173.12207031 31.04296875 C-174.14328343 32.87539119 -175.18981666 34.68990574 -176.25 36.5 C-176.85328125 37.5415625 -177.4565625 38.583125 -178.078125 39.65625 C-180 42 -180 42 -182.734375 42.84375 C-183.48203125 42.8953125 -184.2296875 42.946875 -185 43 C-186.04707818 40.32932737 -186.09713707 39.24734701 -185.03125 36.53320312 C-184.5259375 35.62505859 -184.020625 34.71691406 -183.5 33.78125 C-182.94546143 32.77143066 -182.39092285 31.76161133 -181.81958008 30.72119141 C-180.91888794 29.12670166 -180.91888794 29.12670166 -180 27.5 C-179.40147217 26.42024902 -178.80294434 25.34049805 -178.1862793 24.22802734 C-176.47119575 21.14408795 -174.73924218 18.07036463 -173 15 C-172.36892334 13.87899902 -172.36892334 13.87899902 -171.72509766 12.73535156 C-166.53218256 3.53218256 -166.53218256 3.53218256 -164 1 C-156.59934032 0.0096666 -149.02573133 1.63550788 -141.75 2.875 C-104.99365198 8.71236414 -67.91014608 8.58205629 -31 4 C-29.86030762 3.86126465 -28.72061523 3.7225293 -27.54638672 3.57958984 C-18.3854091 2.44772642 -9.06437329 -0.16785876 0 0 Z " fill="#FCFBFB" transform="translate(594,385)"/>
<path d="M0 0 C0.33 0 0.66 0 1 0 C1.33 1.65 1.66 3.3 2 5 C2.33 5 2.66 5 3 5 C3 99.38 3 193.76 3 291 C-95.01 290.67 -193.02 290.34 -294 290 C-293.67 289.34 -293.34 288.68 -293 288 C-196.31 288 -99.62 288 0 288 C0 192.96 0 97.92 0 0 Z " fill="#BA9653" transform="translate(856,568)"/>
<path d="M0 0 C0.33 0 0.66 0 1 0 C1 69.96 1 139.92 1 212 C1.66 212 2.32 212 3 212 C3 214.64 3 217.28 3 220 C99.03 220 195.06 220 294 220 C293.67 220.66 293.34 221.32 293 222 C196.31 222 99.62 222 0 222 C0 148.74 0 75.48 0 0 Z " fill="#B9954F" transform="translate(165,636)"/>
<path d="M0 0 C4.81284225 2.73456946 6.17560945 6.00693113 8 11 C9.65 11 11.3 11 13 11 C13.24234375 10.45730469 13.4846875 9.91460938 13.734375 9.35546875 C17.33147724 1.67703898 17.33147724 1.67703898 21 0 C26.92574257 -0.62376238 26.92574257 -0.62376238 29.9375 1.125 C31.58516036 4.03263594 31.50082996 5.68200153 31 9 C26.54754237 18.36157758 19.22637659 24.98560467 11 31 C2.76903729 26.01810152 -6.30471464 19.16356118 -10 10 C-10.47085215 6.40975238 -10.6866968 4.25221182 -8.9375 1.0625 C-5.82412541 -0.64483445 -3.48070825 -0.42008548 0 0 Z " fill="#CFD6E2" transform="translate(494,641)"/>
<path d="M0 0 C2.43235407 0.32004659 4.661015 0.89406719 7 1.625 C9.54500607 2.10218864 11.50958213 1.62260447 14 1 C19.45310355 7.29204255 20.3399795 11.20616908 20.29296875 19.62109375 C19.80873497 25.20592333 17.98686801 30.01313199 14 34 C14.99 34.66 15.98 35.32 17 36 C15.865625 36.28875 14.73125 36.5775 13.5625 36.875 C12.386875 37.24625 11.21125 37.6175 10 38 C9.67 38.66 9.34 39.32 9 40 C7.35 39.67 5.7 39.34 4 39 C4.99 38.505 4.99 38.505 6 38 C5.52949219 37.52691406 5.05898438 37.05382812 4.57421875 36.56640625 C-0.02014153 31.68668198 -2.43423775 27.50104488 -4 21 C-4.226875 20.13375 -4.45375 19.2675 -4.6875 18.375 C-5.53510033 11.93323752 -4.90811735 7.70438403 -2 2 C-1.34 1.34 -0.68 0.68 0 0 Z " fill="#F8D1D6" transform="translate(623,375)"/>
<path d="M0 0 C88.44 0 176.88 0 268 0 C267.67 0.66 267.34 1.32 267 2 C233.65679333 2.02286946 200.31358861 2.0404998 166.97037584 2.05106533 C163.03737946 2.05231609 159.10438308 2.05361041 155.17138672 2.05493164 C154.38837027 2.05519395 153.60535382 2.05545626 152.7986096 2.05572652 C140.1061669 2.06008244 127.41372871 2.06796957 114.7212887 2.0771528 C101.70579649 2.08649149 88.69030666 2.09205607 75.67481124 2.09408849 C67.63814441 2.09546327 59.60149033 2.09981143 51.56482743 2.10791647 C45.41101368 2.11380796 39.25720974 2.11445841 33.10339355 2.11310768 C30.57251787 2.11338403 28.04164172 2.11538935 25.51076889 2.11920547 C22.06950851 2.12414214 18.62830377 2.12299836 15.18704224 2.12025452 C13.66663808 2.12462378 13.66663808 2.12462378 12.11551869 2.12908131 C11.19888695 2.12709026 10.28225521 2.12509921 9.33784676 2.12304783 C8.54271238 2.12342755 7.74757801 2.12380727 6.92834866 2.1241985 C5 2 5 2 3 1 C2.10037175 5.68062811 1.79504376 10.27040854 1.68359375 15.0234375 C1.66281265 15.76961334 1.64203156 16.51578918 1.62062073 17.28457642 C1.5556877 19.64796508 1.49650429 22.01145664 1.4375 24.375 C1.39426116 25.98568735 1.35064523 27.59636463 1.30664062 29.20703125 C1.20006474 33.13791771 1.09864208 37.06890677 1 41 C0.67 41 0.34 41 0 41 C0 27.47 0 13.94 0 0 Z " fill="#BA9B56" transform="translate(165,166)"/>
<path d="M0 0 C0 5.28 0 10.56 0 16 C-3.37468106 16.33686656 -6.74968374 16.6696119 -10.125 17 C-11.07632813 17.09539062 -12.02765625 17.19078125 -13.0078125 17.2890625 C-13.9359375 17.37929688 -14.8640625 17.46953125 -15.8203125 17.5625 C-16.66867676 17.64628906 -17.51704102 17.73007812 -18.39111328 17.81640625 C-21.25431374 18.01789668 -24.12971861 18 -27 18 C-27 12.39 -27 6.78 -27 1 C-9 -0.14285714 -9 -0.14285714 0 0 Z " fill="#D9C9D8" transform="translate(588,466)"/>
<path d="M0 0 C12.87 0.495 12.87 0.495 26 1 C26 6.61 26 12.22 26 18 C7.85714286 17 7.85714286 17 0 16 C0 10.72 0 5.44 0 0 Z " fill="#D9C8D7" transform="translate(436,466)"/>
<path d="M0 0 C2.35778619 3.53667928 2.94284357 6.84005552 3.6875 10.9375 C3.82994141 11.65357422 3.97238281 12.36964844 4.11914062 13.10742188 C5.32669557 19.58976909 5.32669557 19.58976909 4 23 C4 22.34 4 21.68 4 21 C3.34 21 2.68 21 2 21 C1.67 108.45 1.34 195.9 1 286 C0.67 286 0.34 286 0 286 C0 191.62 0 97.24 0 0 Z " fill="#B9BEC3" transform="translate(168,569)"/>
<path d="M0 0 C0.33 0 0.66 0 1 0 C1 95.04 1 190.08 1 288 C0.67 288 0.34 288 0 288 C-0.00173625 287.42597513 -0.0034725 286.85195027 -0.00526136 286.26053071 C-0.10823597 252.25722898 -0.21633688 218.25394771 -0.33111694 184.2506838 C-0.34488691 180.17005235 -0.35861395 176.08942075 -0.37231445 172.00878906 C-0.37504276 171.19639109 -0.37777106 170.38399311 -0.38058204 169.54697701 C-0.42468582 156.38383926 -0.46530956 143.22069295 -0.50465261 130.05754021 C-0.54508397 116.5561196 -0.58924256 103.05471492 -0.63687855 89.55331779 C-0.66616666 81.21878702 -0.69252955 72.88425745 -0.71517897 64.54970595 C-0.73097783 58.8383977 -0.75038925 53.12710892 -0.77266841 47.4158223 C-0.78542462 44.11819269 -0.79602768 40.82058057 -0.80341911 37.52293396 C-0.81167514 33.95098572 -0.82595057 30.37911145 -0.84178162 26.80718994 C-0.84275972 25.76050337 -0.84373783 24.7138168 -0.84474558 23.63541245 C-0.85022002 22.67996466 -0.85569446 21.72451687 -0.8613348 20.74011612 C-0.86399284 19.91536356 -0.86665089 19.090611 -0.86938947 18.24086595 C-0.92986188 16.00120646 -0.92986188 16.00120646 -1.52990681 13.89221931 C-2.23850076 11.03998663 -1.59216433 8.6164187 -1.0625 5.75 C-0.86785156 4.67234375 -0.67320312 3.5946875 -0.47265625 2.484375 C-0.31667969 1.66453125 -0.16070313 0.8446875 0 0 Z " fill="#B4B8B4" transform="translate(855,567)"/>
<path d="M0 0 C5.94 0 11.88 0 18 0 C18 5.28 18 10.56 18 16 C12.06 16 6.12 16 0 16 C0 10.72 0 5.44 0 0 Z " fill="#D8C6D6" transform="translate(515,469)"/>
<path d="M0 0 C5.61 0 11.22 0 17 0 C17 5.28 17 10.56 17 16 C11.39 16 5.78 16 0 16 C0 10.72 0 5.44 0 0 Z " fill="#D7C6D6" transform="translate(491,469)"/>
<path d="M0 0 C5.28 0 10.56 0 16 0 C16 5.61 16 11.22 16 17 C10.72 16.34 5.44 15.68 0 15 C0 10.05 0 5.1 0 0 Z " fill="#DBCBD9" transform="translate(414,465)"/>
<path d="M0 0 C5.28 0 10.56 0 16 0 C16 4.95 16 9.9 16 15 C8.08 15.495 8.08 15.495 0 16 C0 10.72 0 5.44 0 0 Z " fill="#DAC9D8" transform="translate(594,465)"/>
<path d="M0 0 C4.95 0 9.9 0 15 0 C15 5.28 15 10.56 15 16 C10.05 16 5.1 16 0 16 C0 10.72 0 5.44 0 0 Z " fill="#DACAD8" transform="translate(540,468)"/>
<path d="M0 0 C4.95 0 9.9 0 15 0 C15 5.28 15 10.56 15 16 C10.05 16 5.1 16 0 16 C0 10.72 0 5.44 0 0 Z " fill="#D8C8D6" transform="translate(469,468)"/>
<path d="M0 0 C5.2244898 11.59183673 5.2244898 11.59183673 4 17 C1.61782742 19.7378816 -0.97186495 21.99948508 -4 24 C-4.66 24 -5.32 24 -6 24 C-5.67 20.7 -5.34 17.4 -5 14 C-4.34 14 -3.68 14 -3 14 C-3.33 12.02 -3.66 10.04 -4 8 C-4.66 8 -5.32 8 -6 8 C-6.33 7.01 -6.66 6.02 -7 5 C-11.95 5.33 -16.9 5.66 -22 6 C-22 4.68 -22 3.36 -22 2 C-7.40318907 -0.29612756 -7.40318907 -0.29612756 0 0 Z " fill="#FBFAF9" transform="translate(706,494)"/>
<path d="M0 0 C1.32 0.33 2.64 0.66 4 1 C3.60619757 8.45539605 0.9635014 14.26298208 -2.25 20.9375 C-2.72824219 21.99001953 -3.20648438 23.04253906 -3.69921875 24.12695312 C-4.17488281 25.12533203 -4.65054687 26.12371094 -5.140625 27.15234375 C-5.56891602 28.05976318 -5.99720703 28.96718262 -6.43847656 29.90209961 C-8 32 -8 32 -10.67871094 32.80297852 C-11.82774902 32.90050415 -11.82774902 32.90050415 -13 33 C-14.04480797 30.30877946 -14.03517537 29.11131447 -13.15136719 26.31445312 C-12.70438477 25.31349609 -12.25740234 24.31253906 -11.796875 23.28125 C-11.31089844 22.18425781 -10.82492187 21.08726562 -10.32421875 19.95703125 C-9.80472656 18.81621094 -9.28523438 17.67539062 -8.75 16.5 C-8.24597656 15.35917969 -7.74195313 14.21835937 -7.22265625 13.04296875 C-3.09652465 3.82685853 -3.09652465 3.82685853 0 0 Z " fill="#F9F8F8" transform="translate(439,398)"/>
<path d="M0 0 C1.32 0.33 2.64 0.66 4 1 C5.51988184 4.90962198 4.41449586 7.40155422 2.98046875 11.2265625 C2.53509766 12.4228125 2.08972656 13.6190625 1.63085938 14.8515625 C1.39391357 15.47063477 1.15696777 16.08970703 0.9128418 16.72753906 C0.1889754 18.62114041 -0.51708932 20.52066773 -1.22070312 22.421875 C-4.72008252 31.72008252 -4.72008252 31.72008252 -7 34 C-9.125 33.625 -9.125 33.625 -11 33 C-10.57947242 28.20598555 -9.96451673 24.5098085 -7.88671875 20.12109375 C-6.26024485 16.23045353 -5.21717245 12.13691333 -4.0625 8.0859375 C-3.02624125 5.0762154 -1.73762013 2.65579441 0 0 Z " fill="#F9F8F8" transform="translate(453,401)"/>
<path d="M0 0 C1.65 0 3.3 0 5 0 C8.49067522 6.75119603 11.80497367 13.57588604 14.9375 20.5 C15.255979 21.18191406 15.57445801 21.86382812 15.90258789 22.56640625 C18.07051083 27.43591333 18.07051083 27.43591333 17.69140625 30.46875 C17.34916016 31.22671875 17.34916016 31.22671875 17 32 C15.68 32 14.36 32 13 32 C12.48050781 30.96101563 11.96101562 29.92203125 11.42578125 28.8515625 C11.08998047 28.18044434 10.75417969 27.50932617 10.40820312 26.81787109 C9.6748707 25.35022585 8.9431112 23.88179367 8.21289062 22.41259766 C6.62810786 19.22825396 5.03173399 16.05939759 3.35546875 12.921875 C0.97311842 8.44552799 -0.68835463 5.23149518 0 0 Z " fill="#FBFAFA" transform="translate(581,399)"/>
<path d="M0 0 C3.69230769 0.69230769 3.69230769 0.69230769 5 2 C5.22684164 3.34296963 5.39444704 4.69607631 5.53515625 6.05078125 C5.6223291 6.88963867 5.70950195 7.72849609 5.79931641 8.59277344 C5.88616699 9.4902832 5.97301758 10.38779297 6.0625 11.3125 C6.15192871 12.21645508 6.24135742 13.12041016 6.33349609 14.05175781 C6.95839962 20.71501481 7.24488892 27.30636944 7 34 C5.02 34.495 5.02 34.495 3 35 C0.5252561 31.28788415 0.30860786 27.94904634 -0.125 23.625 C-0.25128784 22.42629272 -0.25128784 22.42629272 -0.38012695 21.20336914 C-1.04266937 14.49000872 -1.49054021 7.74207592 -1 1 C-0.67 0.67 -0.34 0.34 0 0 Z " fill="#F8F7F8" transform="translate(524,406)"/>
<path d="M0 0 C-0.53410863 7.35251669 -1.13140916 14.67902003 -2 22 C-2.33 21.34 -2.66 20.68 -3 20 C-6.02934491 19.34227572 -6.02934491 19.34227572 -9 19 C-8.67 16.36 -8.34 13.72 -8 11 C-10.64 10.67 -13.28 10.34 -16 10 C-16 7.36 -16 4.72 -16 2 C-13.89627599 1.66388432 -11.79200343 1.33120054 -9.6875 1 C-8.51574219 0.814375 -7.34398437 0.62875 -6.13671875 0.4375 C-3 0 -3 0 0 0 Z " fill="#D2CBD8" transform="translate(628,534)"/>
<path d="M0 0 C1.32 0 2.64 0 4 0 C5.47905238 2.95810476 5.12190903 5.9547155 5.09765625 9.1953125 C5.0962413 9.90275604 5.09482635 10.61019958 5.09336853 11.33908081 C5.087766 13.60109669 5.07521318 15.86301398 5.0625 18.125 C5.05748532 19.65755065 5.05292236 21.19010286 5.04882812 22.72265625 C5.03779577 26.48180888 5.02052952 30.24088772 5 34 C3.34385343 34.38218767 1.67542976 34.71395102 0 35 C-1.70492881 33.29507119 -1.1280442 31.15465739 -1.13894653 28.88098145 C-1.1369223 28.16744507 -1.13489807 27.45390869 -1.1328125 26.71875 C-1.13376923 25.99006714 -1.13472595 25.26138428 -1.13571167 24.51062012 C-1.13639335 22.9672029 -1.13453988 21.42378283 -1.13037109 19.88037109 C-1.12502262 17.510026 -1.13031642 15.13987041 -1.13671875 12.76953125 C-1.13605797 11.27343708 -1.1347768 9.77734303 -1.1328125 8.28125 C-1.13483673 7.56771362 -1.13686096 6.85417725 -1.13894653 6.11901855 C-1.11495191 1.11495191 -1.11495191 1.11495191 0 0 Z " fill="#FAF9F9" transform="translate(510,406)"/>
<path d="M0 0 C1.65 0 3.3 0 5 0 C6.45844809 3.89033879 7.90032794 7.78630561 9.32739258 11.68823242 C9.81478071 13.01377921 10.30659891 14.33770608 10.80297852 15.65991211 C11.51719223 17.56472079 12.21508289 19.47485571 12.91015625 21.38671875 C13.33433838 22.53358154 13.75852051 23.68044434 14.19555664 24.86206055 C15.02184948 28.08522955 14.95128479 29.85225278 14 33 C12.18359375 32.8515625 12.18359375 32.8515625 10 32 C5.63490067 25.100687 -1.89035119 9.83882937 -0.62890625 1.56640625 C-0.42136719 1.04949219 -0.21382812 0.53257812 0 0 Z " fill="#F9F8F8" transform="translate(567,402)"/>
<path d="M0 0 C1.67542976 0.28604898 3.34385343 0.61781233 5 1 C9.5691466 22.4010063 9.5691466 22.4010063 10 33 C8.34385343 33.38218767 6.67542976 33.71395102 5 34 C2.08678281 31.08678281 2.157747 23.68412226 1.4375 19.75 C1.20353516 18.50863281 0.96957031 17.26726562 0.72851562 15.98828125 C0.50744141 14.79074219 0.28636719 13.59320313 0.05859375 12.359375 C-0.14451416 11.26077148 -0.34762207 10.16216797 -0.55688477 9.03027344 C-0.958524 6.28363642 -1.16452973 3.76859509 -1 1 C-0.67 0.67 -0.34 0.34 0 0 Z " fill="#FAFAFA" transform="translate(538,405)"/>
<path d="M0 0 C1.67542976 0.28604898 3.34385343 0.61781233 5 1 C4.43053695 7.95456747 2.98969112 14.25983382 1 20.9375 C0.72671875 21.88173828 0.4534375 22.82597656 0.171875 23.79882812 C-1.83471386 30.66942771 -1.83471386 30.66942771 -3 33 C-4.65 33 -6.3 33 -8 33 C-8.29147445 27.23187407 -7.27078213 22.51059635 -5.625 17 C-5.40328125 16.23171875 -5.1815625 15.4634375 -4.953125 14.671875 C-4.51679349 13.16268132 -4.07584902 11.65481225 -3.62988281 10.1484375 C-3.03063246 8.1044828 -2.46320222 6.0536899 -1.8984375 4 C-1 1 -1 1 0 0 Z " fill="#FBFBFB" transform="translate(467,404)"/>
<path d="M0 0 C1.65 0 3.3 0 5 0 C6.9585536 5.61895717 8.543123 11.32914197 10.125 17.0625 C10.40214844 18.04283203 10.67929687 19.02316406 10.96484375 20.03320312 C11.22652344 20.98259766 11.48820313 21.93199219 11.7578125 22.91015625 C11.9964502 23.76746338 12.23508789 24.62477051 12.48095703 25.50805664 C13.01572143 28.07547912 13.09303752 30.38529464 13 33 C11.02 33.495 11.02 33.495 9 34 C6.8155705 30.61609657 5.41446991 27.5832132 4.39453125 23.69140625 C4.00297852 22.19963867 4.00297852 22.19963867 3.60351562 20.67773438 C3.34248047 19.64970703 3.08144531 18.62167969 2.8125 17.5625 C2.40354492 16.02625977 2.40354492 16.02625977 1.98632812 14.45898438 C0.72125549 9.56039487 -0.39405691 5.1052262 0 0 Z " fill="#FAF9FA" transform="translate(552,404)"/>
<path d="M0 0 C1.67542976 0.28604898 3.34385343 0.61781233 5 1 C4.38052288 12.05277595 3.29690981 23.00774498 2 34 C0.35 34 -1.3 34 -3 34 C-3.21365718 22.86608697 -3.35188131 11.95255677 -1 1 C-0.67 0.67 -0.34 0.34 0 0 Z " fill="#F9F8F9" transform="translate(496,406)"/>
<path d="M0 0 C1.65 0.33 3.3 0.66 5 1 C5.24507275 7.66439777 4.31916618 13.77696622 3.0625 20.3125 C2.88009766 21.30056641 2.69769531 22.28863281 2.50976562 23.30664062 C1.15865198 30.52404406 1.15865198 30.52404406 0 34 C-1.65 34 -3.3 34 -5 34 C-5.32512629 26.33514765 -4.09741566 19.41944957 -2.5 11.9375 C-2.26152344 10.78572266 -2.02304687 9.63394531 -1.77734375 8.44726562 C-1.19279852 5.62975761 -0.60019417 2.81420829 0 0 Z " fill="#FAFAFA" transform="translate(481,405)"/>
<path d="M0 0 C0.33 0 0.66 0 1 0 C1 44.88 1 89.76 1 136 C0.67 136 0.34 136 0 136 C-0.00423194 135.3852393 -0.00846388 134.77047859 -0.01282406 134.13708878 C-0.11611286 119.18104147 -0.22474799 104.22504186 -0.33933926 89.2690773 C-0.3946256 82.03649756 -0.44810004 74.80391288 -0.49731445 67.57128906 C-0.54021253 61.26759865 -0.58650466 54.96394387 -0.63687855 48.6603086 C-0.66343425 45.32235637 -0.68777987 41.98442346 -0.70907402 38.64643097 C-0.73312889 34.92081267 -0.76318229 31.19528834 -0.79467773 27.46972656 C-0.8004332 26.36201904 -0.80618866 25.25431152 -0.81211853 24.11303711 C-0.82190735 23.09783997 -0.83169617 22.08264282 -0.84178162 21.03668213 C-0.84823417 20.15544804 -0.85468672 19.27421394 -0.8613348 18.36627579 C-0.99355931 16.10990829 -1.45378136 14.18277699 -2 12 C-1.76408695 9.90661063 -1.44529026 7.82157082 -1.0625 5.75 C-0.86785156 4.67234375 -0.67320312 3.5946875 -0.47265625 2.484375 C-0.31667969 1.66453125 -0.16070313 0.8446875 0 0 Z " fill="#BEBBBC" transform="translate(855,567)"/>
<path d="M0 0 C1.32 0.33 2.64 0.66 4 1 C4.80078125 2.58984375 4.80078125 2.58984375 5 5 C3.47443537 7.3635924 1.97310886 9.41445361 0.1875 11.5625 C-0.73624715 12.70917642 -1.65944336 13.85629692 -2.58203125 15.00390625 C-3.37996094 15.99261719 -4.17789062 16.98132813 -5 18 C-5.66 18.99 -6.32 19.98 -7 21 C-8.65 20.67 -10.3 20.34 -12 20 C-12.25972031 17.05650312 -12.3346085 15.49178771 -10.64453125 13.0078125 C-10.03996094 12.38648438 -9.43539063 11.76515625 -8.8125 11.125 C-5.5111992 7.59556053 -2.73662762 3.98054926 0 0 Z " fill="#FAFAFA" transform="translate(391,496)"/>
<path d="M0 0 C1.65 0 3.3 0 5 0 C6.34640983 2.38927637 7.67709053 4.7852573 9 7.1875 C9.3815625 7.86103516 9.763125 8.53457031 10.15625 9.22851562 C12.1906511 12.95219622 13.54323525 15.62865388 13 20 C11.68 20.33 10.36 20.66 9 21 C-0.74742268 5.97938144 -0.74742268 5.97938144 0 0 Z " fill="#F9F9F9" transform="translate(596,502)"/>
<path d="M0 0 C1.65 0.33 3.3 0.66 5 1 C4.49277961 5.9889289 2.81694795 9.62733512 0.1875 13.8125 C-0.15603516 14.39708984 -0.49957031 14.98167969 -0.85351562 15.58398438 C-2.39693215 18.08298712 -3.4569767 19.76562227 -6.19921875 20.94921875 C-6.79347656 20.96597656 -7.38773437 20.98273437 -8 21 C-8.33 20.67 -8.66 20.34 -9 20 C-8.67446031 14.45197245 -6.9600694 10.60940491 -3.9375 6.0625 C-3.37192383 5.17981445 -3.37192383 5.17981445 -2.79492188 4.27929688 C-1.87421123 2.84578537 -0.93863006 1.4218428 0 0 Z " fill="#F8F8F8" transform="translate(406,499)"/>
<path d="M0 0 C1.65 0.33 3.3 0.66 5 1 C5 7.93 5 14.86 5 22 C3.35 22.33 1.7 22.66 0 23 C-1.62200515 21.37799485 -1.1299075 19.57976969 -1.1328125 17.34375 C-1.13410156 16.40402344 -1.13539063 15.46429687 -1.13671875 14.49609375 C-1.13285156 13.50738281 -1.12898438 12.51867187 -1.125 11.5 C-1.12886719 10.51128906 -1.13273437 9.52257812 -1.13671875 8.50390625 C-1.13542969 7.56417969 -1.13414062 6.62445312 -1.1328125 5.65625 C-1.13168457 4.78806641 -1.13055664 3.91988281 -1.12939453 3.02539062 C-1 1 -1 1 0 0 Z " fill="#FAFAFB" transform="translate(510,507)"/>
<path d="M0 0 C1.72715127 2.37147713 3.21613613 4.6648267 4.6875 7.1875 C5.10322266 7.86103516 5.51894531 8.53457031 5.94726562 9.22851562 C8.14312558 12.92433904 9.59463227 15.56180259 9 20 C7.68 20.33 6.36 20.66 5 21 C-5 6.3 -5 6.3 -5 1 C-3 0 -3 0 0 0 Z " fill="#FAF9FA" transform="translate(617,499)"/>
<path d="M0 0 C1.8671875 0.2421875 1.8671875 0.2421875 4 1 C7.38053474 6.14813461 10.40422894 13.83353998 9.625 19.9375 C9.41875 20.618125 9.2125 21.29875 9 22 C7.35 21.67 5.7 21.34 4 21 C3.13118459 18.44165429 2.2797867 15.87957539 1.4375 13.3125 C1.19064453 12.59126953 0.94378906 11.87003906 0.68945312 11.12695312 C-0.63020068 7.05647168 -1.38992772 4.21972067 0 0 Z " fill="#F9F8FA" transform="translate(563,505)"/>
<path d="M0 0 C2.125 0.375 2.125 0.375 4 1 C3.5140424 7.96539226 1.3010585 14.86056506 -2 21 C-4.04296875 22.0078125 -4.04296875 22.0078125 -6 22 C-6.66 21.34 -7.32 20.68 -8 20 C-7.77734375 18.3203125 -7.77734375 18.3203125 -7 16 C-6.63003906 14.88367188 -6.26007813 13.76734375 -5.87890625 12.6171875 C-5.22728516 10.76480469 -5.22728516 10.76480469 -4.5625 8.875 C-4.13066406 7.63492187 -3.69882812 6.39484375 -3.25390625 5.1171875 C-2 2 -2 2 0 0 Z " fill="#FAFAFB" transform="translate(440,503)"/>
<path d="M0 0 C2.328125 0.18359375 2.328125 0.18359375 5 1 C8.9388441 6.65960175 10.6151564 13.20109648 11 20 C9.68 20.33 8.36 20.66 7 21 C4.75838397 17.42000734 2.91787057 13.81775182 1.25 9.9375 C0.80140625 8.91527344 0.3528125 7.89304687 -0.109375 6.83984375 C-1.01466666 3.95323393 -1.08724757 2.76452583 0 0 Z " fill="#FAFAFA" transform="translate(580,504)"/>
<path d="M0 0 C1.67542976 0.28604898 3.34385343 0.61781233 5 1 C4.34065816 5.86548808 3.03428754 10.25907636 1.4375 14.875 C1.08655273 15.90753906 1.08655273 15.90753906 0.72851562 16.9609375 C0.15647501 18.64203645 -0.42118456 20.32122163 -1 22 C-2.32 21.67 -3.64 21.34 -5 21 C-6.51833132 16.28036771 -5.2481559 12.73094633 -3.625 8.25 C-3.39039063 7.56550781 -3.15578125 6.88101562 -2.9140625 6.17578125 C-1.16919168 1.16919168 -1.16919168 1.16919168 0 0 Z " fill="#F9FAFA" transform="translate(457,505)"/>
<path d="M0 0 C1.65 0 3.3 0 5 0 C6.20443195 7.05453001 7.28100502 13.83437211 7 21 C5.35 21.33 3.7 21.66 2 22 C-0.01670288 14.56340812 -0.2137731 7.68395543 0 0 Z " fill="#F9F9FA" transform="translate(527,507)"/>
<path d="M0 0 C1.65 0.33 3.3 0.66 5 1 C4.42716568 5.54857726 3.24307618 9.18765419 1.25 13.3125 C0.51523437 14.88451172 0.51523437 14.88451172 -0.234375 16.48828125 C-2 19 -2 19 -4.703125 19.85546875 C-5.46109375 19.90316406 -6.2190625 19.95085938 -7 20 C-7.78821819 17.70456573 -8.13558044 16.41991018 -7.37915039 14.07714844 C-7.03875732 13.4277832 -6.69836426 12.77841797 -6.34765625 12.109375 C-5.98349609 11.40039062 -5.61933594 10.69140625 -5.24414062 9.9609375 C-4.85419922 9.23132813 -4.46425781 8.50171875 -4.0625 7.75 C-3.67642578 7.00492187 -3.29035156 6.25984375 -2.89257812 5.4921875 C-1.93909834 3.65585606 -0.97094323 1.82715793 0 0 Z " fill="#F8F8F9" transform="translate(422,502)"/>
<path d="M0 0 C1.2065625 0.0309375 1.2065625 0.0309375 2.4375 0.0625 C2.67841535 7.2899605 1.78245828 13.96544338 0.4375 21.0625 C-1.2125 21.3925 -2.8625 21.7225 -4.5625 22.0625 C-4.68260487 15.04303779 -4.72019615 8.00867691 -3.5625 1.0625 C-2.5625 0.0625 -2.5625 0.0625 0 0 Z " fill="#FAFAFB" transform="translate(494.5625,506.9375)"/>
<path d="M0 0 C1.65 0.33 3.3 0.66 5 1 C4.59248958 8.39139585 3.41492814 14.99822721 1 22 C-0.65 21.67 -2.3 21.34 -4 21 C-3.54034292 13.69303751 -2.11670277 7.00242552 0 0 Z " fill="#F8F8F9" transform="translate(474,506)"/>
<path d="M0 0 C0.99 0 1.98 0 3 0 C5.95870791 6.85882288 7.04296522 13.61394333 8 21 C6.35 21.33 4.7 21.66 3 22 C-0.94740379 16.07889432 -1.45737385 8.01306575 -1 1 C-0.67 0.67 -0.34 0.34 0 0 Z " fill="#F9F9FA" transform="translate(546,506)"/>
<path d="M0 0 C0 3.67955095 -0.73759596 4.138162 -3.1875 6.75 C-6.45042333 10.33125731 -9.25667258 14.00970557 -12 18 C-11.01 18.33 -10.02 18.66 -9 19 C-10.258125 19.020625 -11.51625 19.04125 -12.8125 19.0625 C-13.52019531 19.07410156 -14.22789062 19.08570313 -14.95703125 19.09765625 C-17 19 -17 19 -20 18 C-20 16.35 -20 14.7 -20 13 C-19.05898438 12.48050781 -18.11796875 11.96101562 -17.1484375 11.42578125 C-15.89044274 10.72167971 -14.63264048 10.01723415 -13.375 9.3125 C-12.75753906 8.97283203 -12.14007812 8.63316406 -11.50390625 8.28320312 C-7.25992984 5.8931743 -3.66047496 3.21558646 0 0 Z " fill="#F2BFC7" transform="translate(646,539)"/>
<path d="M0 0 C4.24871618 0.49249824 6.08958225 1.59073998 8.875 4.8125 C9.49117187 5.49957031 10.10734375 6.18664062 10.7421875 6.89453125 C12 9 12 9 11.7578125 11.13671875 C11 13 11 13 10 15 C6.44263493 13.5328827 4.55804833 11.6293581 2.1875 8.625 C1.56230469 7.85414063 0.93710937 7.08328125 0.29296875 6.2890625 C-1 4 -1 4 -0.69921875 1.7109375 C-0.46847656 1.14632813 -0.23773437 0.58171875 0 0 Z " fill="#FBFAFB" transform="translate(628,497)"/>
<path d="M0 0 C2.35778619 3.53667928 2.94284357 6.84005552 3.6875 10.9375 C3.82994141 11.65357422 3.97238281 12.36964844 4.11914062 13.10742188 C5.32669557 19.58976909 5.32669557 19.58976909 4 23 C4 22.34 4 21.68 4 21 C3.34 21 2.68 21 2 21 C1.67 28.26 1.34 35.52 1 43 C0.67 43 0.34 43 0 43 C0 28.81 0 14.62 0 0 Z " fill="#C5C3C6" transform="translate(168,569)"/>
<path d="M0 0 C0 3 0 3 -1.14575195 4.48632812 C-1.67128662 4.99615234 -2.19682129 5.50597656 -2.73828125 6.03125 C-3.31126953 6.59457031 -3.88425781 7.15789063 -4.47460938 7.73828125 C-5.08111328 8.31964844 -5.68761719 8.90101563 -6.3125 9.5 C-7.20485352 10.37205078 -7.20485352 10.37205078 -8.11523438 11.26171875 C-9.22880836 12.34916418 -10.34543545 13.43349817 -11.46606445 14.51367188 C-12.99341961 15.99362384 -14.49997913 17.49239617 -16 19 C-15.57714698 14.06671479 -13.58291648 12.27798742 -10 9 C-8.60043031 7.58702447 -7.20479669 6.17014262 -5.8125 4.75 C-2.24768946 1.12384473 -2.24768946 1.12384473 0 0 Z " fill="#EAE2E0" transform="translate(296,547)"/>
<path d="M0 0 C2.9375 0.375 2.9375 0.375 6 1 C6.33 1.66 6.66 2.32 7 3 C8.97888961 3.72693904 10.97954558 4.39816251 13 5 C13 5.33 13 5.66 13 6 C8.05 6 3.1 6 -2 6 C-1.34 4.02 -0.68 2.04 0 0 Z " fill="#F9F7F7" transform="translate(619,553)"/>
<path d="M0 0 C-1.55367366 1.01365893 -3.11837836 2.01042256 -4.6875 3 C-5.99267578 3.8353125 -5.99267578 3.8353125 -7.32421875 4.6875 C-10.16973337 6.08325608 -11.8788594 6.26993648 -15 6 C-14 3 -14 3 -11.6015625 1.796875 C-10.61929688 1.45140625 -9.63703125 1.1059375 -8.625 0.75 C-7.64789062 0.39421875 -6.67078125 0.0384375 -5.6640625 -0.328125 C-3 -1 -3 -1 0 0 Z " fill="#F3C6CE" transform="translate(585,564)"/>
<path d="M0 0 C2.25170312 2.25170312 2.51474 3.32987578 3.1875 6.375 C3.36667969 7.14585937 3.54585937 7.91671875 3.73046875 8.7109375 C4.01304909 11.11082272 3.73503321 12.71670535 3 15 C3 14.34 3 13.68 3 13 C2.34 13 1.68 13 1 13 C0.67 13.66 0.34 14.32 0 15 C0 10.05 0 5.1 0 0 Z " fill="#C7C9D4" transform="translate(169,577)"/>
<path d="M0 0 C0.33 0 0.66 0 1 0 C1 4.95 1 9.9 1 15 C-1.55337724 12.44662276 -1.43261395 11.04725582 -1.75 7.5 C-1.84796875 6.5203125 -1.9459375 5.540625 -2.046875 4.53125 C-2 2 -2 2 0 0 Z " fill="#DAC7D2" transform="translate(854,432)"/>
<path d="M0 0 C1.77503906 0.03480469 1.77503906 0.03480469 3.5859375 0.0703125 C5.36871094 0.09738281 5.36871094 0.09738281 7.1875 0.125 C8.10273438 0.14820313 9.01796875 0.17140625 9.9609375 0.1953125 C9.9609375 0.8553125 9.9609375 1.5153125 9.9609375 2.1953125 C6.54954747 3.29183073 3.75438169 3.13746723 0.2109375 2.7578125 C-1.26632812 2.60505859 -1.26632812 2.60505859 -2.7734375 2.44921875 C-3.52109375 2.36542969 -4.26875 2.28164063 -5.0390625 2.1953125 C-3.0390625 0.1953125 -3.0390625 0.1953125 0 0 Z " fill="#E3E1E2" transform="translate(310.0390625,610.8046875)"/>
<path d="M0 0 C0.33 0 0.66 0 1 0 C1 2.64 1 5.28 1 8 C-0.98 8.99 -0.98 8.99 -3 10 C-2.69201674 8.51988629 -2.378482 7.04092675 -2.0625 5.5625 C-1.88847656 4.73878906 -1.71445312 3.91507813 -1.53515625 3.06640625 C-1 1 -1 1 0 0 Z " fill="#C5C7DB" transform="translate(854,582)"/>
</svg>
